<?xml version="1.0" standalone="no"?>
<!DOCTYPE svg PUBLIC "-//W3C//DTD SVG 20010904//EN"
 "http://www.w3.org/TR/2001/REC-SVG-20010904/DTD/svg10.dtd">
<svg version="1.0" xmlns="http://www.w3.org/2000/svg"
 width="1080.000000pt" height="1080.000000pt" viewBox="0 0 1080.000000 1080.000000"
 preserveAspectRatio="xMidYMid meet">
<metadata>
Created by potrace 1.14, written by Peter Selinger 2001-2017
</metadata>
<g transform="translate(0.000000,1080.000000) scale(0.100000,-0.100000)"
fill="#000000" stroke="none">
<path d="M4145 10787 c5 -12 2 -15 -14 -12 -12 2 -27 7 -34 11 -9 6 -9 5 0 -7
10 -13 7 -14 -22 -11 -21 3 -32 8 -28 15 3 6 1 7 -6 3 -6 -4 -9 -11 -6 -16 3
-5 1 -11 -5 -15 -5 -3 -10 2 -11 12 0 16 -1 16 -9 -2 -5 -12 -9 -14 -9 -6 -1
11 -5 10 -16 -5 -15 -19 -15 -19 -8 1 6 18 5 18 -10 6 -9 -7 -14 -18 -10 -24
3 -6 1 -7 -5 -3 -6 4 -8 14 -5 24 4 11 -1 9 -15 -7 -20 -22 -28 -18 -23 12 2
12 -6 8 -20 -10 -12 -14 -12 -16 0 -8 9 5 12 4 7 -3 -4 -6 -14 -8 -23 -5 -10
4 -14 2 -10 -4 4 -6 -5 -9 -24 -7 -21 3 -28 0 -23 -8 5 -7 3 -8 -7 -2 -21 13
-38 14 -46 2 -3 -6 -1 -8 5 -4 6 3 13 2 16 -3 7 -11 -13 -9 -33 3 -10 7 -12 5
-6 -3 5 -9 2 -12 -11 -9 -11 2 -23 -2 -29 -9 -5 -6 -23 -13 -40 -15 -16 -2
-33 -7 -37 -13 -4 -5 -12 -11 -18 -11 -5 -1 -11 -2 -12 -4 -10 -7 -37 -6 -32
2 4 6 -2 5 -15 -1 -11 -7 -21 -17 -21 -23 0 -6 -3 -8 -7 -5 -3 4 -13 1 -21 -6
-11 -8 -14 -8 -9 0 4 6 3 15 -3 18 -6 4 -9 1 -8 -7 2 -8 -6 -13 -19 -12 -18 0
-20 -2 -11 -13 9 -11 7 -12 -7 -7 -13 5 -16 4 -10 -5 6 -11 3 -11 -16 0 -21
11 -22 10 -12 -2 10 -13 8 -15 -17 -13 -17 1 -27 -2 -24 -7 10 -16 -6 -31 -21
-19 -10 8 -15 6 -20 -9 -3 -12 -11 -21 -16 -21 -6 0 -7 6 -3 13 4 6 -3 2 -15
-10 -22 -23 -37 -31 -26 -14 3 5 1 13 -5 16 -6 4 -10 3 -9 -2 3 -20 -2 -34
-11 -28 -5 3 -10 1 -10 -6 0 -8 -5 -7 -17 2 -10 9 -14 9 -10 2 5 -7 -3 -18
-20 -27 -15 -8 -27 -17 -25 -20 7 -17 0 -17 -13 0 -13 16 -14 16 -9 2 4 -12 1
-18 -9 -18 -9 0 -19 -4 -22 -10 -4 -6 1 -7 12 -3 10 3 15 3 11 -1 -5 -7 -27
-13 -52 -15 -4 -1 -6 -7 -3 -15 4 -10 0 -14 -14 -11 -10 2 -19 -1 -19 -6 0 -6
-6 -7 -12 -3 -10 6 -10 5 0 -8 10 -13 9 -15 -14 -12 -19 2 -24 -1 -20 -13 5
-11 2 -13 -10 -9 -11 4 -18 -1 -21 -14 -5 -18 -15 -24 -36 -21 -4 1 -7 -7 -5
-16 2 -10 -3 -18 -9 -19 -7 -1 -17 -2 -23 -3 -5 0 -9 -7 -7 -13 1 -7 -4 -12
-10 -11 -7 2 -13 -2 -13 -8 0 -5 -4 -7 -10 -4 -6 3 -7 -1 -4 -9 7 -19 -12 -22
-20 -3 -3 6 -3 1 0 -12 4 -16 3 -21 -5 -17 -6 4 -11 2 -11 -3 0 -6 -6 -10 -12
-8 -7 1 -12 -4 -10 -12 2 -9 -3 -11 -14 -7 -14 5 -15 4 -4 -9 11 -13 10 -14
-5 -8 -15 5 -17 3 -12 -11 5 -14 3 -17 -8 -12 -9 3 -15 0 -15 -10 0 -9 5 -12
12 -8 7 4 8 3 4 -4 -4 -6 -14 -8 -23 -5 -10 4 -14 2 -10 -4 9 -15 -39 -57 -55
-47 -10 6 -9 3 1 -10 8 -9 10 -16 5 -15 -20 3 -26 -2 -16 -14 8 -10 6 -13 -9
-14 -11 -1 -17 2 -14 7 3 6 -1 7 -10 4 -14 -6 -14 -8 2 -20 17 -13 17 -13 0
-14 -10 0 -15 -5 -12 -10 3 -6 -1 -13 -9 -16 -9 -3 -13 -10 -10 -15 3 -5 0 -9
-5 -9 -6 0 -11 -7 -11 -16 0 -8 -4 -13 -9 -10 -5 3 -11 -3 -14 -14 -3 -11 -11
-19 -19 -18 -9 2 -12 -7 -11 -27 l2 -30 -14 25 c-14 25 -14 25 -8 -9 4 -23 3
-32 -4 -28 -6 4 -16 0 -22 -7 -8 -10 -9 -16 -1 -21 6 -3 8 -11 4 -16 -4 -6
-10 -6 -19 1 -9 8 -11 4 -9 -17 2 -16 1 -22 -2 -15 -5 10 -10 7 -19 -10 -8
-15 -8 -27 -2 -36 7 -9 6 -11 -7 -6 -12 5 -15 2 -9 -12 4 -12 3 -15 -6 -10 -8
5 -10 0 -7 -19 4 -23 3 -25 -10 -14 -12 10 -13 9 -9 -3 4 -9 -3 -19 -17 -27
-23 -11 -23 -11 -1 -7 19 3 20 2 10 -15 -6 -10 -19 -19 -27 -19 -13 0 -13 -1
0 -10 11 -7 11 -10 2 -10 -7 0 -10 -4 -7 -10 3 -5 2 -10 -4 -10 -6 0 -7 -8 -4
-17 5 -13 2 -15 -12 -10 -16 7 -16 5 -4 -10 12 -15 12 -16 -4 -10 -13 5 -16 3
-10 -6 14 -22 12 -39 -3 -33 -8 3 -12 2 -9 -3 3 -5 -3 -12 -12 -14 -17 -4 -17
-5 0 -6 21 -1 23 -21 2 -21 -8 0 -15 -5 -15 -11 0 -5 5 -7 10 -4 6 3 10 1 10
-4 0 -6 -4 -11 -9 -11 -5 0 -8 -11 -5 -24 3 -18 -1 -26 -16 -31 -11 -4 -18
-11 -14 -16 3 -5 11 -6 17 -2 7 3 4 -3 -7 -15 -10 -12 -23 -19 -29 -15 -6 3
-7 1 -3 -6 4 -6 11 -9 15 -7 4 3 8 -1 8 -9 0 -8 -5 -11 -10 -8 -6 4 -8 -1 -4
-11 4 -10 3 -15 -3 -11 -6 4 -10 -5 -10 -20 0 -18 -4 -24 -12 -19 -10 6 -10 4
0 -8 10 -13 10 -18 -2 -30 -10 -11 -11 -19 -4 -33 9 -14 8 -17 -4 -13 -9 4
-14 -1 -15 -13 -1 -10 2 -19 8 -19 5 0 9 -5 9 -11 0 -6 -9 -8 -22 -4 -21 5
-21 5 -4 -6 14 -9 15 -13 5 -19 -19 -13 -20 -52 0 -45 9 3 5 -5 -9 -17 -14
-13 -21 -20 -16 -15 18 13 29 7 16 -8 -7 -9 -10 -18 -6 -22 3 -3 -1 -17 -9
-30 -15 -22 -9 -31 11 -15 5 4 1 -1 -9 -10 -11 -10 -15 -18 -9 -18 6 0 8 -10
4 -22 -4 -16 -2 -19 9 -13 12 8 12 6 0 -8 -15 -19 -26 -23 -15 -5 4 7 3 8 -5
4 -9 -6 -9 -11 0 -22 9 -11 8 -14 -2 -14 -10 0 -10 -3 -1 -12 15 -15 16 -32 1
-22 -8 5 -8 1 0 -14 7 -14 8 -23 1 -27 -13 -8 -13 -315 -1 -349 7 -17 7 -26
-2 -30 -9 -3 -9 -5 1 -5 6 -1 12 -6 12 -12 0 -5 -3 -8 -8 -5 -4 2 -6 -13 -4
-35 2 -21 7 -37 11 -35 4 3 8 -5 8 -17 2 -18 0 -19 -8 -7 -8 11 -8 9 -3 -10 4
-14 8 -34 9 -45 2 -11 9 -19 16 -17 11 2 11 -1 -1 -10 -19 -16 -19 -56 0 -68
8 -5 11 -10 7 -10 -4 0 -3 -8 2 -18 6 -11 6 -24 0 -34 -6 -11 -4 -21 6 -31 11
-12 12 -17 2 -20 -9 -4 -8 -6 2 -6 11 -1 11 -4 1 -16 -10 -12 -8 -14 7 -10 12
2 20 -2 20 -10 0 -7 -6 -11 -14 -8 -11 4 -11 0 -3 -22 6 -15 7 -31 4 -37 -4
-7 -2 -8 4 -4 7 4 12 1 12 -9 0 -10 5 -13 13 -9 8 5 8 2 -2 -9 -9 -11 -10 -17
-2 -17 6 0 11 -5 11 -11 0 -5 -4 -7 -10 -4 -6 3 -10 1 -10 -4 0 -6 7 -11 15
-11 9 0 12 -6 9 -15 -4 -8 -1 -22 6 -30 6 -8 10 -20 7 -27 -2 -7 7 -26 22 -43
15 -17 18 -23 7 -15 -18 13 -19 13 -11 0 4 -8 14 -22 21 -30 7 -8 13 -18 13
-22 1 -5 1 -9 2 -10 0 -2 3 -14 5 -27 2 -14 12 -33 21 -43 10 -11 12 -18 5
-18 -7 0 -12 5 -12 12 0 6 -2 9 -5 6 -11 -10 7 -37 21 -31 10 4 12 0 8 -11 -3
-9 -1 -16 4 -16 6 0 9 -9 7 -20 -2 -11 0 -18 6 -15 13 9 11 -9 -2 -22 -9 -9
-7 -11 9 -6 17 4 20 1 15 -16 -4 -15 -1 -21 10 -21 9 0 19 -4 22 -10 3 -6 -1
-7 -12 -4 -11 3 -9 0 5 -8 12 -8 19 -17 16 -21 -4 -4 1 -14 12 -23 19 -15 19
-16 -1 -9 -14 4 -11 -1 10 -19 16 -13 30 -32 30 -42 0 -12 7 -18 19 -17 13 1
15 -2 7 -10 -7 -7 -5 -14 7 -24 12 -10 12 -12 2 -8 -10 4 -9 2 3 -8 9 -8 17
-19 17 -26 0 -6 5 -11 11 -11 5 0 7 -4 4 -10 -3 -5 0 -10 8 -10 8 0 27 -17 43
-37 17 -24 20 -32 8 -20 -28 24 -39 22 -14 -3 11 -11 24 -20 30 -20 9 0 14
-21 11 -42 0 -4 7 -4 16 -1 10 4 14 2 10 -4 -4 -6 0 -14 9 -17 9 -3 12 -11 8
-18 -6 -9 -3 -9 9 0 14 12 16 11 12 -8 -3 -18 -1 -20 18 -14 19 6 20 5 9 -8
-10 -13 -9 -18 4 -29 9 -7 23 -14 31 -15 8 -2 18 -6 21 -10 4 -4 -1 -4 -10 -1
-10 4 -18 2 -18 -3 0 -6 7 -10 16 -10 20 0 44 -24 44 -44 0 -9 4 -16 10 -16 5
0 7 8 3 18 -5 14 -3 13 10 -3 8 -11 13 -24 9 -30 -3 -5 2 -4 12 4 15 12 17 12
14 0 -2 -8 3 -13 11 -11 12 3 12 0 2 -12 -9 -11 -9 -16 0 -22 8 -4 9 -3 5 4
-4 7 -3 12 2 12 13 0 42 -34 43 -51 0 -8 4 -6 9 6 l9 20 1 -20 c2 -11 2 -23 1
-27 -1 -10 12 -10 25 0 5 4 8 6 7 4 -4 -8 31 -41 39 -36 8 5 12 -11 9 -30 -1
-5 6 -3 15 5 16 12 17 12 11 -4 -5 -13 -2 -17 11 -15 9 2 16 -2 15 -9 -2 -8 4
-10 15 -6 15 6 16 5 2 -12 -10 -13 -11 -16 -2 -11 9 5 23 -1 39 -15 13 -13 26
-23 29 -21 12 7 34 0 28 -9 -4 -8 0 -9 15 -4 17 5 20 3 14 -12 -6 -16 -5 -17
13 -3 10 8 16 11 12 6 -4 -5 -1 -15 7 -22 15 -15 29 -19 21 -6 -3 5 1 9 9 9 8
0 13 -5 12 -11 -1 -6 4 -10 11 -8 8 1 11 -1 8 -6 -2 -4 4 -14 16 -21 11 -7 18
-9 15 -4 -3 5 2 9 12 9 10 0 18 -6 18 -13 0 -7 -5 -9 -10 -6 -6 3 -7 1 -3 -6
6 -8 12 -9 20 -2 9 8 18 5 33 -8 14 -13 24 -16 31 -9 7 7 12 4 16 -10 4 -11
15 -22 26 -25 14 -4 17 -1 12 11 -5 14 -4 15 10 2 9 -8 13 -19 10 -24 -3 -5 0
-6 6 -2 6 3 16 -2 22 -11 11 -17 11 -17 6 1 -5 14 -2 17 10 12 8 -3 18 -6 20
-6 2 0 4 -8 4 -17 0 -15 2 -16 10 -3 9 13 10 13 11 0 0 -10 3 -8 9 5 8 19 9
19 9 1 1 -14 6 -17 22 -13 15 4 19 2 15 -8 -4 -11 0 -12 19 -5 18 7 30 4 51
-13 16 -12 25 -16 20 -9 -4 6 -3 12 2 12 6 0 12 -7 16 -15 3 -8 10 -15 16 -15
6 0 9 4 6 8 -3 5 1 9 9 9 8 0 12 -4 9 -9 -3 -4 6 -8 20 -8 13 0 32 -3 42 -7
13 -5 15 -3 9 8 -5 8 -1 7 12 -4 11 -9 23 -14 26 -10 4 3 7 0 7 -8 0 -11 2
-11 10 1 5 8 10 10 10 3 0 -6 9 -9 22 -5 15 4 19 2 13 -7 -6 -10 -3 -11 13 -2
22 12 55 5 46 -10 -8 -14 3 -10 20 7 9 8 16 11 16 5 0 -6 7 -11 15 -11 8 0 15
-6 15 -12 0 -10 3 -9 9 1 7 11 9 11 14 0 3 -9 6 -7 7 6 1 17 3 17 11 -5 10
-24 11 -24 25 -6 8 11 14 15 14 9 0 -6 7 -13 14 -16 11 -4 13 -1 10 11 -5 15
-4 15 9 0 15 -19 32 -25 22 -8 -3 6 1 7 9 4 9 -3 14 -11 13 -17 -1 -7 4 -11
12 -9 12 3 12 0 2 -12 -8 -9 -12 -34 -9 -61 2 -31 -1 -45 -9 -45 -7 0 -13 -5
-13 -11 0 -5 5 -7 10 -4 10 6 11 5 15 -33 2 -19 0 -20 -13 -10 -13 11 -14 10
-4 -9 7 -12 17 -24 24 -26 8 -3 6 -6 -4 -6 -12 -1 -15 -6 -11 -18 4 -11 3 -14
-5 -9 -6 4 -5 -5 3 -21 13 -25 13 -29 -3 -35 -16 -6 -15 -9 7 -12 5 0 13 -5
18 -9 4 -5 2 -7 -6 -5 -7 2 -16 -3 -19 -11 -2 -8 0 -11 5 -8 5 3 10 0 10 -8 0
-8 -4 -12 -9 -9 -4 3 -8 1 -8 -5 0 -5 8 -12 18 -14 12 -3 13 -5 2 -6 -12 -1
-14 -14 -12 -63 1 -35 8 -66 15 -71 8 -6 6 -7 -7 -3 -12 4 -17 2 -13 -6 20
-50 20 -51 6 -43 -12 8 -12 6 0 -8 12 -15 11 -17 -3 -17 -9 0 -16 -5 -16 -11
0 -5 4 -8 9 -4 5 3 12 1 16 -5 3 -5 0 -10 -7 -10 -8 0 -9 -3 -3 -8 18 -13 16
-32 -3 -26 -12 4 -10 0 7 -15 19 -18 20 -21 6 -21 -15 0 -15 -3 -5 -15 11 -13
10 -14 -5 -9 -15 6 -15 4 -6 -15 33 -63 34 -66 20 -53 -22 20 -30 13 -14 -12
13 -19 13 -25 3 -29 -9 -4 -9 -6 -1 -6 8 -1 9 -10 2 -33 -11 -40 -11 -40 -1
-34 5 3 9 -1 9 -9 0 -8 -4 -12 -9 -9 -4 3 -8 1 -8 -5 0 -5 8 -12 18 -14 12 -3
13 -5 2 -6 -14 -1 -17 -48 -9 -136 2 -11 -1 -31 -5 -44 -5 -14 -4 -21 1 -18 5
4 10 0 10 -8 0 -8 -4 -12 -9 -9 -4 3 -8 1 -8 -5 0 -5 8 -12 18 -14 12 -3 13
-5 2 -6 -20 -1 -18 -119 2 -133 10 -7 9 -8 -4 -4 -21 6 -22 2 -8 -25 7 -13 7
-19 1 -19 -7 0 -7 -9 -1 -25 8 -20 6 -25 -6 -25 -8 0 -12 -5 -9 -10 4 -6 10
-8 15 -5 5 3 12 1 15 -5 4 -6 1 -9 -6 -8 -6 2 -14 -3 -17 -11 -2 -8 0 -11 5
-8 5 3 10 0 10 -8 0 -8 -4 -12 -9 -9 -4 3 -8 1 -8 -5 0 -5 8 -12 18 -14 12 -3
13 -5 2 -6 -12 -1 -14 -13 -11 -63 1 -35 8 -67 15 -71 7 -6 4 -7 -6 -3 -20 6
-22 -1 -9 -22 5 -9 -1 -24 -20 -45 -27 -30 -29 -30 -42 -13 -11 15 -16 16 -22
6 -6 -9 -4 -11 6 -5 12 7 12 5 1 -6 -11 -12 -14 -12 -23 1 -8 12 -12 12 -16 2
-4 -10 -9 -9 -19 5 -13 17 -14 17 -8 1 3 -10 1 -18 -5 -18 -6 0 -11 5 -11 11
0 8 -6 7 -17 -2 -11 -10 -14 -10 -9 -1 11 18 -5 14 -20 -5 -12 -15 -13 -15 -8
-2 3 11 -2 18 -16 22 -16 4 -19 2 -11 -7 8 -9 7 -13 -4 -13 -8 0 -15 5 -15 10
0 5 -7 4 -15 -3 -13 -11 -18 -10 -29 5 -10 14 -15 15 -21 5 -6 -9 -4 -11 6 -5
12 7 12 5 1 -6 -11 -12 -14 -12 -23 1 -8 12 -12 12 -16 2 -4 -10 -9 -9 -19 5
-13 17 -14 17 -8 1 3 -10 1 -18 -5 -18 -6 0 -11 5 -11 11 0 8 -6 7 -17 -2 -11
-10 -14 -10 -9 -2 11 19 -5 15 -20 -4 -12 -15 -13 -15 -8 -2 3 11 -2 18 -16
22 -16 4 -19 2 -11 -7 8 -9 7 -13 -4 -13 -8 0 -15 5 -15 10 0 5 -7 4 -15 -3
-13 -11 -18 -10 -29 5 -10 14 -15 15 -21 5 -6 -9 -4 -11 6 -5 12 7 12 5 1 -6
-11 -12 -14 -12 -23 1 -8 12 -12 12 -16 2 -4 -10 -9 -9 -19 5 -13 17 -14 17
-8 1 3 -10 1 -18 -5 -18 -6 0 -11 5 -11 11 0 8 -6 7 -17 -2 -11 -10 -14 -10
-9 -1 11 18 -5 14 -20 -5 -12 -15 -13 -15 -8 -2 3 11 -2 18 -16 22 -16 4 -19
2 -11 -7 8 -9 7 -13 -4 -13 -8 0 -15 5 -15 10 0 5 -7 4 -15 -3 -13 -11 -18
-10 -29 5 -10 14 -15 15 -21 5 -6 -9 -4 -11 6 -5 12 7 12 5 1 -6 -11 -12 -14
-12 -23 1 -8 12 -12 12 -16 2 -4 -10 -9 -9 -19 5 -13 17 -14 17 -8 1 3 -10 1
-18 -5 -18 -6 0 -11 5 -11 12 0 9 -3 9 -12 0 -15 -15 -28 -15 -28 -1 0 5 5 7
12 3 7 -5 8 -3 3 5 -5 9 -11 9 -17 3 -6 -6 -17 -8 -26 -5 -8 4 -13 2 -9 -3 9
-16 -57 -11 -69 5 -9 11 -12 12 -19 1 -6 -9 -4 -11 6 -5 12 7 12 5 1 -6 -11
-12 -14 -12 -23 1 -8 12 -12 12 -16 2 -4 -10 -9 -9 -19 5 -13 17 -14 17 -8 1
3 -10 1 -18 -5 -18 -6 0 -11 5 -11 11 0 8 -6 7 -17 -2 -11 -10 -14 -10 -9 -1
4 6 2 12 -3 12 -6 0 -11 -6 -11 -12 0 -9 -3 -9 -8 -2 -4 6 -16 14 -27 17 -19
7 -19 7 -1 -7 18 -14 18 -15 -3 -13 -11 1 -21 5 -21 10 0 5 -7 4 -15 -3 -13
-11 -18 -10 -29 5 -10 14 -15 15 -21 5 -6 -9 -4 -11 6 -5 12 7 12 5 1 -6 -11
-12 -14 -12 -23 1 -8 12 -12 12 -16 2 -4 -10 -9 -9 -19 5 -13 17 -14 17 -8 1
3 -10 1 -18 -5 -18 -6 0 -11 5 -11 11 0 8 -6 7 -17 -2 -11 -10 -14 -10 -9 -1
11 18 -5 14 -20 -5 -12 -15 -13 -15 -8 -2 3 11 -2 18 -16 22 -16 4 -19 2 -11
-7 8 -9 7 -13 -4 -13 -8 0 -15 5 -15 10 0 5 -7 4 -15 -3 -13 -11 -18 -10 -29
5 -10 14 -15 15 -21 5 -6 -9 -4 -11 6 -5 12 7 12 5 1 -6 -11 -12 -14 -12 -23
1 -8 12 -12 12 -16 2 -4 -10 -9 -9 -19 5 -13 17 -14 17 -8 1 3 -10 1 -18 -5
-18 -6 0 -11 5 -11 11 0 8 -6 7 -17 -2 -11 -10 -14 -10 -9 -2 4 7 3 13 -3 13
-5 0 -13 -5 -16 -10 -4 -7 -13 -7 -26 0 -18 10 -23 6 -20 -13 1 -5 -3 -6 -9
-2 -6 3 -8 11 -5 16 4 5 1 9 -4 9 -6 0 -11 -5 -11 -12 0 -6 -7 -3 -15 8 -13
16 -14 16 -9 2 3 -10 1 -18 -5 -18 -6 0 -11 5 -11 11 0 8 -6 7 -17 -2 -11 -10
-14 -10 -9 -2 4 7 3 13 -3 13 -5 0 -12 -6 -14 -12 -4 -10 -6 -9 -6 1 -1 11 -4
11 -16 1 -12 -10 -15 -10 -15 1 0 11 -2 11 -10 -1 -5 -8 -10 -10 -10 -5 0 14
-40 14 -40 0 0 -5 -5 -3 -10 5 -9 13 -10 13 -11 0 -1 -8 -1 -18 0 -22 0 -4 -6
-5 -15 -1 -14 5 -15 3 -5 -15 9 -17 9 -22 -1 -22 -9 0 -9 -3 2 -10 12 -8 12
-10 -5 -10 -16 0 -17 -2 -5 -9 8 -6 19 -7 25 -5 5 3 1 -2 -9 -10 -19 -15 -19
-16 0 -38 10 -12 13 -18 5 -13 -11 6 -13 3 -9 -13 5 -16 2 -22 -10 -22 -15 -1
-15 -2 1 -11 17 -10 17 -12 1 -23 -16 -12 -15 -14 7 -29 19 -14 20 -17 6 -17
-20 0 -21 -9 -6 -30 9 -13 10 -12 5 3 -3 11 -2 16 4 12 6 -3 10 -12 10 -18 0
-7 10 -17 23 -22 12 -6 26 -20 32 -33 5 -12 13 -22 18 -22 4 0 6 -4 2 -9 -3
-5 0 -13 6 -17 8 -4 9 -3 5 4 -4 7 -2 12 3 12 6 0 11 -5 11 -11 0 -5 6 -7 13
-3 8 5 8 2 -2 -9 -12 -15 -11 -17 8 -17 13 0 21 -6 21 -16 0 -11 5 -14 16 -10
14 5 15 4 5 -8 -9 -11 -9 -16 0 -22 8 -4 9 -3 5 4 -4 7 -2 12 3 12 6 0 11 -5
11 -11 0 -5 6 -7 13 -3 9 6 9 5 -1 -8 -10 -13 -9 -18 5 -29 11 -9 14 -10 9 -1
-4 6 -2 12 3 12 6 0 11 -10 11 -21 0 -19 2 -20 17 -8 11 10 14 10 9 2 -4 -7
-2 -13 3 -13 6 0 11 -5 11 -11 0 -5 -5 -7 -12 -3 -7 4 -8 3 -4 -5 4 -6 12 -9
17 -6 5 4 9 1 9 -4 0 -6 7 -11 15 -11 8 0 15 -5 15 -11 0 -5 6 -7 13 -3 8 5 8
2 -2 -9 -12 -15 -11 -17 9 -17 18 0 21 -4 17 -21 -4 -16 -3 -19 5 -11 8 8 15
7 24 -3 17 -17 18 -29 2 -19 -7 4 -8 3 -4 -5 4 -6 12 -9 17 -6 5 4 9 1 9 -4 0
-6 7 -11 15 -11 9 0 15 -9 15 -21 0 -19 2 -20 17 -8 11 10 14 10 9 2 -4 -7 -2
-13 3 -13 6 0 11 -5 11 -11 0 -5 -6 -7 -12 -3 -9 5 -8 2 1 -10 10 -12 17 -14
25 -6 5 5 15 10 21 10 5 0 5 -4 -2 -8 -9 -6 -5 -16 13 -37 14 -17 23 -23 19
-15 -4 10 -2 9 8 -2 8 -10 18 -14 23 -10 4 4 2 -1 -5 -10 -12 -16 -11 -18 8
-18 12 0 21 -6 21 -15 0 -8 5 -15 11 -15 5 0 8 -4 5 -9 -3 -4 3 -16 13 -25 13
-12 21 -14 26 -6 3 5 11 8 16 4 6 -4 6 -11 -2 -20 -10 -13 -6 -18 14 -15 4 0
7 -3 7 -9 0 -5 7 -10 15 -10 9 0 15 -9 15 -21 0 -19 2 -20 17 -8 11 10 14 10
9 2 -4 -7 -2 -13 3 -13 6 0 11 -5 11 -11 0 -5 -5 -7 -12 -3 -7 4 -8 3 -4 -5 6
-9 11 -9 22 0 12 10 13 9 8 -5 -4 -11 -1 -16 10 -16 9 0 16 -5 16 -11 0 -5 6
-7 13 -3 8 5 8 2 -2 -9 -12 -15 -11 -17 5 -18 11 -1 23 -1 27 0 4 1 2 -9 -4
-21 -11 -20 -10 -21 2 -11 12 10 18 9 29 -7 7 -10 18 -16 24 -13 6 4 5 -1 -3
-10 -12 -15 -11 -17 8 -17 12 0 21 -6 21 -14 0 -8 9 -18 20 -21 11 -3 20 -13
20 -21 0 -8 5 -14 11 -14 5 0 8 -4 4 -9 -3 -5 -1 -12 4 -15 5 -4 12 -2 16 4 4
6 11 8 16 4 6 -4 6 -10 -1 -19 -7 -9 -6 -16 7 -26 11 -9 14 -10 9 -2 -4 7 -2
13 3 13 6 0 11 -5 11 -11 0 -5 6 -7 13 -3 8 5 8 2 -2 -9 -12 -15 -11 -17 8
-17 13 0 21 -6 21 -16 0 -11 5 -14 16 -10 14 5 15 4 5 -8 -9 -11 -9 -16 0 -22
8 -4 9 -3 5 4 -10 17 3 15 20 -2 9 -9 10 -17 4 -21 -5 -3 -10 -12 -9 -18 0 -9
2 -9 6 1 8 20 33 14 33 -9 0 -19 2 -20 17 -8 11 10 14 10 9 2 -4 -8 -2 -13 5
-13 7 0 9 -8 6 -21 -4 -15 -2 -18 7 -10 9 7 16 5 26 -9 7 -10 18 -16 24 -13 6
4 5 -1 -3 -10 -12 -15 -11 -17 3 -17 27 0 47 -25 33 -40 -10 -10 -7 -10 11 -1
12 7 22 8 21 4 -1 -4 -1 -16 0 -27 1 -16 3 -17 19 -5 9 7 14 9 10 5 -4 -5 0
-15 10 -23 11 -10 12 -12 2 -8 -8 4 -6 -1 5 -10 11 -9 19 -18 18 -20 -8 -13
-1 -16 11 -6 9 8 16 8 20 2 4 -5 2 -12 -4 -16 -15 -9 -2 -25 15 -18 9 3 15 -1
15 -11 0 -9 5 -16 11 -16 5 0 8 -4 4 -9 -3 -5 -1 -12 4 -15 5 -4 12 -2 16 4 4
6 11 8 16 4 6 -4 6 -10 -1 -19 -7 -9 -6 -16 7 -26 11 -9 14 -10 9 -2 -4 7 -2
13 3 13 6 0 11 -5 11 -11 0 -5 6 -7 13 -3 8 5 8 2 -2 -9 -12 -15 -11 -17 8
-17 12 0 21 -6 21 -15 0 -8 5 -15 11 -15 5 0 7 -4 4 -10 -3 -5 0 -7 8 -4 8 3
18 0 23 -7 5 -8 3 -10 -7 -5 -8 4 -6 1 4 -7 10 -9 18 -18 18 -21 -2 -16 0 -18
12 -7 17 14 30 2 17 -14 -7 -9 -5 -17 7 -26 11 -9 14 -10 9 -1 -4 6 -2 12 3
12 6 0 11 -5 11 -11 0 -5 6 -7 13 -3 8 5 8 2 -2 -9 -12 -15 -11 -17 10 -18 13
-1 28 -1 32 0 5 1 6 -3 2 -9 -3 -6 -10 -8 -15 -5 -5 3 -12 1 -15 -5 -4 -6 -3
-10 2 -9 19 3 34 -2 28 -10 -3 -5 0 -13 6 -17 8 -4 9 -3 5 4 -10 16 2 15 19
-2 10 -9 11 -16 3 -24 -8 -8 -5 -9 11 -5 17 4 21 1 21 -17 0 -20 2 -21 17 -9
11 10 14 10 9 1 -4 -6 -2 -12 3 -12 6 0 11 -7 11 -16 0 -11 5 -14 16 -10 14 5
15 4 5 -8 -9 -11 -9 -16 0 -22 8 -4 9 -3 5 4 -4 7 -2 12 3 12 6 0 11 -5 11
-11 0 -5 6 -7 13 -3 8 5 8 2 -2 -9 -12 -15 -11 -17 8 -17 11 0 21 -5 21 -11 0
-5 -5 -7 -12 -3 -7 4 -8 3 -4 -4 4 -6 13 -9 22 -5 9 3 14 0 12 -8 -2 -8 3 -13
11 -11 11 2 12 0 3 -11 -9 -11 -7 -13 11 -13 14 1 26 -7 32 -22 5 -12 13 -22
18 -22 4 0 6 -4 2 -9 -3 -5 0 -13 6 -17 8 -4 9 -3 5 4 -4 7 -2 12 3 12 6 0 11
-5 11 -11 0 -5 6 -7 13 -3 8 5 8 2 -2 -9 -12 -15 -11 -17 8 -17 12 0 21 -6 21
-15 0 -8 5 -15 11 -15 5 0 8 -4 4 -9 -3 -5 -1 -12 4 -15 5 -4 12 -2 16 4 4 6
11 8 16 4 6 -4 6 -10 -1 -19 -7 -9 -6 -16 7 -26 11 -9 14 -10 9 -2 -4 7 -2 13
3 13 6 0 11 -10 11 -21 0 -17 3 -19 14 -10 9 8 16 8 20 2 4 -5 2 -12 -4 -16
-6 -4 -8 -11 -4 -16 3 -5 10 -7 15 -4 5 4 9 1 9 -4 0 -6 7 -11 15 -11 8 0 15
-5 15 -11 0 -5 6 -7 13 -3 8 5 8 2 -2 -9 -12 -15 -11 -17 5 -18 11 -1 23 -1
27 0 4 1 2 -9 -4 -21 -11 -20 -10 -21 2 -11 12 10 18 9 29 -7 7 -10 17 -17 22
-14 4 3 5 -2 2 -10 -4 -11 0 -16 10 -16 10 0 16 -8 16 -21 0 -19 2 -20 17 -8
11 10 14 10 9 2 -4 -7 -2 -13 3 -13 6 0 11 -5 11 -11 0 -5 -6 -7 -12 -3 -9 5
-8 2 1 -9 11 -14 16 -15 29 -5 13 10 14 10 8 0 -4 -6 -2 -12 3 -12 6 0 11 -5
11 -11 0 -5 -5 -7 -12 -3 -7 4 -8 3 -4 -5 4 -6 12 -9 17 -6 5 4 9 1 9 -4 0 -6
7 -11 15 -11 8 0 15 -5 15 -11 0 -5 6 -7 12 -3 9 5 9 2 -1 -9 -12 -15 -11 -17
8 -17 12 0 21 -6 21 -14 0 -8 9 -18 20 -21 11 -3 20 -11 20 -16 0 -6 -6 -7
-12 -3 -9 5 -8 2 1 -10 10 -12 17 -14 25 -6 5 5 15 10 21 10 5 0 5 -4 -2 -8
-9 -6 -5 -16 13 -37 14 -17 22 -24 18 -16 -5 9 -3 12 4 7 7 -4 12 -16 12 -28
0 -18 2 -19 17 -7 11 10 14 10 9 2 -4 -7 -2 -13 3 -13 6 0 11 -5 11 -11 0 -5
-5 -7 -12 -3 -7 4 -8 3 -4 -5 4 -6 12 -9 17 -6 5 4 9 1 9 -4 0 -6 7 -11 15
-11 8 0 15 -5 15 -11 0 -5 6 -7 13 -3 8 5 8 2 -2 -9 -12 -15 -11 -17 9 -17 18
0 21 -4 17 -21 -4 -16 -3 -19 5 -11 13 13 38 -8 38 -34 0 -14 2 -15 17 -3 10
7 15 10 11 5 -8 -10 14 -36 24 -29 4 2 5 -3 2 -11 -4 -11 0 -16 10 -16 9 0 16
-5 16 -11 0 -5 6 -7 13 -3 8 5 8 2 -2 -9 -12 -15 -11 -17 8 -17 12 0 21 -6 21
-16 0 -9 -5 -12 -12 -8 -7 4 -8 3 -4 -4 5 -9 13 -9 28 -1 15 8 19 8 14 0 -4
-6 -2 -11 3 -11 6 0 11 -5 11 -11 0 -5 -5 -7 -12 -3 -7 4 -8 3 -4 -5 6 -9 11
-9 22 0 12 10 13 9 8 -5 -4 -11 -1 -16 10 -16 10 0 16 -8 16 -21 0 -19 2 -20
17 -8 11 10 14 10 9 2 -4 -7 -2 -13 3 -13 6 0 11 -5 11 -11 0 -5 -6 -7 -12 -3
-9 5 -8 2 1 -9 11 -13 17 -15 28 -6 7 7 16 9 20 5 3 -3 2 -6 -4 -6 -5 0 -10
-7 -10 -15 0 -11 4 -12 14 -3 10 8 12 8 8 -4 -3 -8 2 -21 11 -29 16 -12 17
-12 10 1 -4 9 -2 8 7 -2 8 -10 18 -14 23 -10 4 4 2 -1 -5 -10 -12 -16 -11 -18
8 -18 13 0 21 -6 21 -16 0 -11 5 -14 18 -9 13 5 14 4 5 -6 -20 -20 14 -54 35
-36 13 9 14 9 8 0 -4 -7 -2 -13 3 -13 6 0 11 -5 11 -11 0 -5 -5 -7 -12 -3 -7
4 -8 3 -4 -5 6 -9 11 -9 22 0 12 10 13 9 8 -5 -4 -11 -1 -16 10 -16 10 0 16
-8 16 -21 0 -19 2 -20 17 -8 11 10 14 10 9 1 -4 -6 -2 -12 3 -12 6 0 11 -5 11
-11 0 -5 -5 -7 -12 -3 -7 4 -8 3 -4 -5 4 -6 12 -9 17 -6 5 4 9 1 9 -4 0 -6 7
-11 15 -11 8 0 15 -5 15 -11 0 -5 6 -7 13 -3 8 5 8 2 -2 -9 -12 -15 -11 -17 9
-17 18 0 21 -4 17 -21 -4 -15 -2 -18 7 -10 9 7 16 5 26 -9 7 -10 18 -16 24
-13 6 4 5 -1 -3 -10 -12 -15 -11 -17 8 -17 12 0 21 -6 21 -14 0 -8 9 -18 20
-21 11 -3 20 -13 20 -21 0 -8 5 -14 11 -14 5 0 8 -4 4 -9 -3 -5 -1 -12 4 -15
5 -4 12 -2 16 4 4 6 11 8 16 4 6 -4 6 -10 -1 -19 -7 -9 -6 -16 7 -26 11 -9 14
-10 9 -2 -4 7 -2 13 3 13 6 0 11 -5 11 -11 0 -5 6 -7 13 -3 8 5 8 2 -2 -9 -12
-15 -11 -17 8 -17 13 0 21 -6 21 -16 0 -11 5 -14 16 -10 14 5 15 4 5 -8 -9
-11 -9 -16 0 -22 8 -4 9 -3 5 4 -10 16 2 15 19 -2 10 -9 11 -16 3 -24 -8 -8
-5 -9 11 -5 17 4 21 1 21 -17 0 -20 2 -21 17 -9 11 10 14 10 9 2 -4 -7 -2 -13
3 -13 6 0 11 -7 11 -16 0 -11 5 -14 16 -10 14 5 15 4 5 -8 -9 -11 -9 -16 0
-22 8 -4 9 -3 5 4 -4 7 -2 12 3 12 6 0 11 -5 11 -11 0 -5 6 -7 13 -3 8 5 8 2
-2 -9 -12 -15 -11 -17 3 -17 27 0 47 -25 33 -40 -10 -10 -7 -10 11 -1 12 7 22
8 21 4 -1 -4 -1 -16 0 -27 1 -16 3 -17 18 -5 11 10 14 10 9 2 -4 -7 -2 -13 3
-13 6 0 11 -7 11 -15 0 -8 5 -15 11 -15 5 0 8 -4 4 -9 -3 -5 0 -13 6 -17 8 -4
9 -3 5 4 -4 7 -2 12 3 12 6 0 11 -5 11 -11 0 -5 6 -7 13 -3 8 5 8 2 -2 -9 -12
-15 -11 -17 7 -17 12 0 24 -5 28 -12 5 -7 2 -8 -7 -3 -8 5 -4 -3 9 -17 12 -13
19 -27 16 -31 -4 -3 5 -4 20 -1 21 3 24 1 20 -13 -5 -17 -5 -17 6 -1 6 9 17
15 25 12 9 -4 15 0 15 7 1 9 4 8 11 -3 5 -10 15 -18 20 -18 6 0 8 4 5 8 -3 5
1 9 9 9 8 0 15 -4 15 -9 0 -5 5 -6 11 -2 20 12 74 12 81 1 5 -8 8 -7 8 3 0 13
1 13 10 0 9 -13 12 -12 25 4 14 19 21 11 16 -18 -1 -5 5 -4 13 3 9 7 13 18 9
24 -4 6 0 8 8 5 18 -7 18 65 -1 87 -11 13 -10 14 6 8 17 -6 17 -5 5 10 -12 16
-12 17 5 11 18 -5 18 -5 1 9 -13 10 -14 16 -6 19 8 3 10 11 6 22 -4 10 -12 14
-19 10 -9 -6 -9 -3 0 9 9 10 13 34 10 65 -2 40 0 49 12 45 8 -3 4 5 -9 16 -17
16 -19 21 -7 21 10 0 13 5 9 17 -5 12 -3 14 8 9 8 -4 6 -1 -4 7 -13 10 -14 16
-6 19 8 3 10 11 6 22 -4 10 -12 14 -19 10 -9 -6 -9 -3 0 9 9 11 13 36 10 72
-2 39 1 55 10 55 6 0 12 5 12 11 0 5 -5 7 -10 4 -13 -8 -13 5 -9 167 0 15 5
30 10 34 14 8 -10 35 -25 28 -6 -3 -3 1 6 9 10 8 15 17 11 21 -14 14 -9 46 6
46 13 0 13 2 2 9 -8 5 -10 14 -6 21 6 9 4 11 -5 5 -9 -6 -10 -2 -5 15 9 28 7
158 -2 173 -4 7 2 5 12 -3 17 -14 18 -14 7 7 -7 12 -17 24 -24 26 -8 3 -6 6 5
6 10 1 15 5 12 11 -14 22 -13 50 1 50 8 0 14 5 14 11 0 5 -4 7 -10 4 -11 -7
-11 -11 -13 117 -2 82 0 95 12 85 12 -10 12 -9 3 10 -7 12 -17 24 -24 26 -8 4
-7 6 4 6 14 1 15 6 8 31 -7 23 -5 30 6 30 8 0 14 5 14 11 0 5 -4 7 -10 4 -5
-3 -11 0 -11 7 -3 32 1 141 5 145 2 3 0 17 -4 33 -7 24 -6 28 8 24 11 -4 9 1
-7 15 -19 18 -20 21 -6 21 15 0 15 3 5 15 -11 13 -10 14 4 9 12 -5 15 -2 10
10 -3 9 -9 14 -13 11 -4 -2 -8 2 -8 10 0 8 4 12 9 9 4 -3 8 0 8 5 0 6 -8 11
-17 12 -14 0 -13 2 5 9 12 5 22 12 22 15 0 4 -4 4 -9 1 -5 -4 -11 18 -13 48
-2 44 0 53 12 49 8 -3 4 5 -9 16 -19 18 -20 21 -6 21 15 0 15 3 5 15 -11 13
-10 14 4 9 12 -5 15 -2 10 10 -3 9 -9 14 -13 11 -4 -2 -8 2 -8 10 0 8 5 11 10
8 5 -3 7 0 5 8 -3 8 -11 13 -18 11 -11 -3 -11 0 -1 12 8 9 12 35 9 64 -2 40 0
49 12 45 8 -3 4 5 -9 16 -19 18 -20 21 -6 21 15 0 15 3 5 15 -11 13 -10 15 6
9 18 -5 18 -5 1 9 -13 10 -14 16 -6 19 8 3 10 11 6 22 -4 10 -12 14 -18 10 -8
-5 -9 -3 -3 7 21 33 24 108 5 127 -15 14 -14 15 2 9 19 -7 22 0 7 23 -6 9 -5
17 1 21 7 4 3 13 -8 24 -17 17 -17 18 0 12 19 -7 22 0 7 23 -6 9 -5 17 1 21 7
4 3 13 -8 24 -17 18 -17 18 4 13 21 -6 21 -5 7 17 -11 17 -12 24 -3 27 8 3 5
10 -7 23 -17 17 -17 18 -1 12 20 -7 21 -3 7 24 -7 13 -7 19 0 19 5 0 10 5 10
11 0 5 -4 8 -8 5 -5 -3 -9 1 -9 9 0 8 4 12 9 9 4 -3 8 -1 8 5 0 5 -8 12 -17
14 -14 4 -14 5 -3 6 13 1 15 11 10 60 -5 51 -4 58 9 48 12 -10 13 -9 3 10 -7
12 -17 24 -24 26 -8 3 -5 6 6 6 15 1 16 4 6 16 -11 13 -10 15 6 9 18 -5 18 -5
1 9 -16 13 -16 15 -1 21 15 6 15 8 -1 26 -17 19 -17 20 1 20 12 0 15 3 8 8 -7
4 -13 28 -15 53 -3 38 -1 46 11 42 8 -3 4 5 -9 16 -17 16 -19 21 -7 21 10 0
13 5 9 17 -5 12 -3 14 8 9 8 -4 5 0 -5 8 -11 9 -14 16 -8 16 7 0 12 8 12 18 0
15 -2 15 -10 2 -8 -11 -9 -7 -6 15 12 71 10 127 -5 137 -11 7 -9 9 8 5 21 -5
21 -4 7 18 -11 17 -12 24 -3 27 8 3 5 10 -7 23 -19 18 -19 18 3 13 21 -6 21
-5 7 17 -11 17 -12 24 -3 27 8 3 5 10 -7 23 -19 18 -19 18 3 13 21 -6 21 -5 7
17 -11 17 -12 24 -3 27 8 3 5 10 -7 23 -17 17 -17 18 -1 12 20 -7 21 -3 7 24
-7 13 -7 19 0 19 5 0 10 5 10 11 0 5 -4 8 -8 5 -5 -3 -9 1 -9 9 0 8 4 12 9 9
4 -3 8 -1 8 5 0 5 -8 12 -17 14 -14 4 -14 5 -3 6 13 1 15 11 10 60 -5 52 -4
58 9 48 12 -10 13 -9 6 3 -4 8 -15 23 -23 33 -14 16 -14 17 1 11 13 -5 16 -2
10 12 -4 12 -3 15 5 10 8 -4 10 -2 6 8 -3 8 -11 14 -17 12 -7 -1 -9 -1 -4 1 4
3 5 9 1 14 -3 5 0 8 7 7 6 -2 14 3 17 11 3 9 0 11 -8 6 -8 -5 -11 -4 -7 3 10
15 43 7 39 -9 -2 -9 3 -7 16 4 15 14 21 15 24 5 4 -11 8 -10 21 1 15 12 17 11
18 -5 0 -18 1 -18 9 1 5 12 9 15 9 6 1 -11 4 -12 12 -4 8 8 20 8 36 2 16 -6
22 -5 18 1 -3 6 -1 10 4 10 6 0 11 -4 11 -9 0 -5 13 -8 29 -7 21 0 27 5 23 16
-4 12 -2 12 9 -1 8 -9 23 -19 34 -23 18 -6 19 -5 3 7 -16 12 -14 14 12 14 20
0 30 -5 31 -16 0 -12 3 -11 9 4 5 12 9 15 9 6 1 -11 4 -12 12 -4 8 8 20 8 36
2 16 -6 22 -5 18 1 -3 6 -1 10 4 10 6 0 11 -4 11 -9 0 -5 13 -8 29 -7 21 0 27
5 23 16 -4 12 -2 12 9 -1 8 -9 23 -19 34 -23 18 -6 19 -5 3 7 -16 12 -14 14
12 14 20 0 30 -5 31 -16 0 -12 3 -11 9 4 5 11 9 14 9 6 1 -11 4 -11 18 0 11 9
14 10 9 2 -5 -9 -2 -11 8 -7 9 3 13 11 10 18 -3 6 2 2 10 -8 11 -14 16 -15 16
-6 0 9 5 7 15 -6 10 -12 14 -14 13 -4 -2 8 2 14 7 15 6 0 16 4 24 9 10 6 12 5
7 -2 -4 -7 -1 -12 8 -12 9 0 16 -5 16 -12 0 -6 7 -3 15 8 10 13 14 14 15 5 0
-11 3 -11 15 -1 12 10 15 10 15 -1 0 -11 2 -11 10 1 8 12 10 12 10 -5 0 -17 2
-17 10 -5 5 8 17 15 27 15 10 0 23 4 30 8 8 5 11 1 8 -14 -4 -21 -4 -21 15 -4
13 11 20 14 20 6 0 -7 5 -9 12 -4 18 10 52 10 60 -1 4 -6 13 -4 22 3 14 11 16
11 16 -5 0 -15 2 -16 9 -5 5 8 17 16 25 17 9 1 14 -1 12 -4 -2 -4 6 -7 19 -7
13 0 21 3 18 8 -2 4 1 7 6 7 6 0 11 -4 11 -9 0 -5 13 -8 29 -7 21 0 27 5 23
16 -4 12 -2 12 9 -1 8 -9 23 -19 34 -23 18 -6 19 -5 3 7 -16 12 -14 14 12 14
20 0 30 -5 31 -16 0 -12 3 -11 9 4 5 12 9 15 9 6 1 -11 4 -12 12 -4 8 8 20 8
36 2 16 -6 22 -5 18 1 -3 6 -1 10 4 10 6 0 11 -4 11 -9 0 -6 9 -9 20 -8 12 1
19 6 15 14 -3 11 0 11 16 3 11 -7 17 -16 12 -23 -4 -7 1 -5 12 3 10 8 27 14
38 12 13 -3 17 0 12 9 -5 8 -4 10 3 5 7 -4 12 -15 12 -24 0 -14 2 -15 9 -3 5
8 17 16 25 17 9 1 14 -2 11 -7 -4 -5 1 -6 9 -3 9 3 13 11 9 18 -4 6 1 5 10 -3
9 -7 14 -18 10 -25 -3 -6 3 -3 14 7 16 14 22 15 26 5 4 -11 7 -10 18 1 12 12
12 13 0 6 -10 -5 -12 -4 -7 4 10 15 26 5 27 -17 0 -14 2 -13 9 3 5 11 9 14 9
6 1 -10 4 -11 14 -2 8 6 17 8 21 4 10 -11 37 -12 30 -2 -3 5 0 9 5 9 6 0 11
-4 11 -10 0 -14 40 -6 51 11 7 12 9 12 10 -1 1 -8 1 -19 -1 -25 -1 -5 8 -1 19
9 12 11 21 14 21 8 0 -12 27 -12 47 1 15 9 11 36 -8 49 -12 8 -11 9 2 5 12 -4
16 2 16 24 0 15 -4 26 -8 24 -9 -6 -6 15 4 32 4 6 1 13 -5 16 -10 3 -10 7 1
20 11 14 11 17 0 17 -8 0 -5 6 7 14 17 13 17 15 2 21 -9 4 -19 14 -22 22 -5
13 -4 14 9 3 14 -11 14 -10 5 14 -5 15 -8 31 -6 34 2 4 -7 7 -20 7 -13 0 -24
-3 -24 -7 0 -5 -5 -8 -11 -8 -5 0 -7 6 -3 13 5 7 0 6 -11 -3 -19 -16 -23 -15
-43 9 -8 9 -11 11 -8 4 4 -6 2 -14 -4 -18 -5 -3 -10 2 -10 11 0 16 -1 16 -16
-2 -8 -10 -12 -12 -8 -4 7 13 5 13 -8 2 -12 -10 -17 -10 -20 -1 -2 7 -12 13
-21 15 -9 1 -15 -2 -11 -7 3 -5 11 -6 17 -3 7 4 8 3 4 -1 -11 -13 -37 -15 -37
-3 0 6 -7 4 -17 -3 -15 -12 -16 -12 -8 1 5 10 1 9 -13 -3 -20 -19 -21 -18 -15
5 3 17 2 20 -5 9 -13 -18 -44 -23 -53 -9 -4 7 -15 13 -23 14 -9 1 -14 -1 -11
-6 3 -4 -2 -10 -10 -14 -8 -3 -17 0 -21 6 -5 7 -12 5 -21 -7 -12 -18 -13 -17
-13 6 0 18 -3 21 -9 10 -12 -18 -43 -23 -52 -9 -4 7 -15 13 -23 14 -9 1 -14
-2 -10 -7 3 -5 10 -6 16 -3 6 4 8 3 5 -3 -7 -11 -36 -11 -54 0 -7 4 -16 0 -22
-10 -9 -16 -10 -15 -11 6 0 24 0 24 -16 5 -8 -10 -13 -13 -9 -6 8 15 -11 16
-21 1 -4 -8 -9 -7 -14 2 -5 7 -16 14 -24 15 -9 1 -14 -2 -10 -7 3 -5 10 -6 16
-3 6 4 8 3 5 -3 -7 -11 -36 -11 -54 0 -7 4 -16 0 -22 -10 -9 -16 -10 -15 -11
7 0 19 -3 21 -9 11 -12 -18 -43 -23 -52 -9 -4 7 -15 13 -23 14 -9 1 -14 -2
-10 -7 3 -5 10 -6 16 -3 6 4 8 3 5 -3 -7 -11 -36 -11 -54 0 -7 4 -16 0 -22
-10 -9 -16 -10 -15 -11 7 0 19 -3 22 -9 10 -11 -19 -87 -20 -83 -1 1 7 -2 10
-8 6 -6 -3 -8 -11 -5 -16 4 -5 2 -9 -4 -9 -5 0 -12 6 -15 13 -5 9 -7 9 -12 -1
-5 -10 -9 -9 -20 5 -13 17 -14 17 -8 1 3 -10 1 -18 -5 -18 -6 0 -11 5 -11 11
0 8 -5 8 -15 -1 -8 -7 -15 -9 -15 -5 0 4 -7 2 -15 -5 -13 -11 -14 -10 -10 2 4
10 -1 17 -15 21 -16 4 -19 2 -11 -7 8 -9 7 -13 -4 -13 -8 0 -15 5 -15 10 0 5
-7 4 -15 -3 -13 -11 -18 -10 -29 5 -10 14 -15 15 -21 5 -6 -9 -4 -11 6 -5 12
7 12 5 1 -6 -11 -12 -14 -12 -23 1 -8 12 -12 12 -16 2 -4 -10 -9 -9 -19 5 -13
17 -14 17 -8 1 3 -10 1 -18 -5 -18 -6 0 -11 5 -11 12 0 9 -3 9 -12 0 -15 -15
-28 -15 -28 -1 0 5 5 7 12 3 7 -5 8 -3 3 5 -5 9 -11 9 -17 3 -6 -6 -17 -8 -26
-5 -8 4 -13 2 -9 -3 9 -16 -57 -11 -69 5 -9 11 -12 12 -19 1 -6 -9 -4 -11 6
-5 12 7 12 5 1 -6 -11 -12 -14 -12 -23 1 -8 12 -12 12 -16 2 -4 -10 -9 -9 -19
5 -13 17 -14 17 -8 1 3 -10 1 -18 -5 -18 -6 0 -11 5 -11 11 0 8 -5 7 -15 -1
-12 -10 -19 -10 -27 -2 -13 13 -42 16 -34 4 9 -14 -59 -8 -70 7 -9 11 -12 12
-19 1 -6 -9 -4 -11 6 -5 12 7 12 5 1 -6 -11 -12 -14 -12 -23 1 -8 12 -12 12
-16 2 -4 -10 -9 -9 -19 5 -13 17 -14 17 -8 1 3 -10 1 -18 -5 -18 -6 0 -11 5
-11 11 0 8 -6 7 -17 -2 -11 -10 -14 -10 -9 -1 4 6 3 12 -3 12 -5 0 -13 -5 -16
-10 -4 -6 -13 -7 -23 -2 -20 10 -33 10 -48 -1 -13 -8 -26 15 -28 51 -1 12 4
22 11 22 7 0 13 5 13 11 0 5 -4 8 -9 5 -15 -9 -19 18 -11 62 4 24 4 45 -1 48
-4 2 -4 15 0 27 5 12 5 34 0 49 -6 22 -4 26 9 22 11 -4 9 1 -7 15 -19 17 -20
21 -7 21 11 0 14 4 10 12 -13 21 -11 48 3 48 7 0 13 5 13 11 0 5 -4 7 -10 4
-5 -3 -11 0 -11 7 -3 32 1 141 5 145 2 3 0 17 -4 33 -7 24 -6 28 8 22 15 -5
15 -4 3 11 -7 9 -18 14 -25 11 -6 -3 -3 1 6 9 10 8 15 17 11 21 -12 12 -10 46
4 46 7 0 13 5 13 11 0 5 -4 8 -9 4 -5 -3 -12 -1 -16 5 -3 5 0 10 7 10 8 0 9 3
3 8 -5 4 -10 48 -10 99 0 77 2 90 14 80 12 -10 12 -9 3 10 -7 12 -17 24 -24
26 -8 3 -6 6 5 6 12 1 15 5 11 13 -13 21 -11 48 3 48 7 0 13 5 13 11 0 5 -5 7
-10 4 -11 -7 -11 -11 -13 117 -2 82 0 95 12 85 12 -10 12 -9 3 10 -7 12 -17
24 -24 26 -8 4 -7 6 4 6 14 1 15 6 8 31 -7 23 -5 30 6 30 8 0 14 5 14 11 0 5
-4 7 -10 4 -11 -7 -11 -11 -13 117 -2 82 0 95 12 85 12 -10 12 -9 3 10 -7 12
-17 24 -24 26 -8 3 -6 6 5 6 12 1 15 5 11 13 -13 21 -11 48 3 48 7 0 13 5 13
11 0 5 -4 7 -10 4 -11 -7 -11 -11 -13 116 -2 77 1 95 11 91 12 -4 12 -1 1 16
-7 11 -16 19 -19 17 -4 -2 -7 2 -7 9 0 8 5 13 11 12 6 -2 8 -1 4 1 -4 2 -4 12
-1 21 3 12 2 14 -4 4 -11 -14 -46 -5 -37 9 3 5 0 9 -5 9 -6 0 -11 -10 -11 -22
0 -13 -3 -18 -8 -12 -4 6 -20 13 -35 16 -23 4 -27 2 -23 -11 6 -14 5 -14 -7 0
-8 11 -23 16 -45 13 -24 -3 -31 0 -27 9 4 6 -2 2 -12 -11 -11 -14 -22 -19 -28
-14 -6 5 -25 12 -44 16 -28 5 -32 4 -22 -8 9 -11 8 -14 -6 -12 -10 0 -17 -5
-16 -11 2 -7 -4 -13 -12 -13 -8 0 -15 -5 -15 -11 0 -5 4 -8 9 -4 5 3 13 0 17
-6 4 -7 3 -10 -2 -7 -5 3 -17 -3 -26 -14 -12 -12 -14 -18 -5 -18 8 0 8 -3 1
-8 -10 -6 -26 -38 -28 -54 -1 -3 -5 -10 -10 -15 -5 -5 -6 -3 -2 5 4 6 2 12 -3
12 -6 0 -12 -11 -12 -25 -2 -42 -4 -45 -17 -54 -8 -5 -13 -11 -13 -15 3 -21
-1 -28 -13 -23 -10 4 -12 0 -9 -14 3 -11 0 -19 -6 -19 -7 0 -11 -9 -9 -20 2
-10 -6 -26 -17 -35 -11 -9 -13 -13 -5 -9 12 5 12 4 3 -6 -6 -7 -10 -18 -9 -24
2 -6 1 -8 -1 -3 -9 14 -21 7 -19 -10 2 -10 -4 -24 -13 -31 -9 -8 -10 -10 -2
-6 9 5 12 3 7 -4 -4 -7 -15 -12 -24 -12 -15 0 -15 -2 -2 -10 13 -8 12 -11 -5
-25 -11 -9 -14 -14 -7 -10 7 4 12 0 12 -9 0 -10 -7 -13 -20 -11 -11 2 -18 0
-15 -5 3 -4 2 -10 -2 -13 -5 -2 -2 -2 5 -1 6 2 12 -1 12 -6 0 -6 -8 -10 -17
-11 -10 0 -13 -3 -6 -6 10 -3 10 -7 0 -18 -7 -7 -15 -11 -19 -8 -5 2 -8 0 -8
-6 0 -5 6 -12 13 -14 9 -4 9 -6 -1 -6 -7 -1 -10 -5 -7 -11 4 -6 -1 -7 -12 -3
-15 6 -16 4 -5 -9 10 -12 8 -19 -11 -40 -13 -14 -21 -30 -19 -36 2 -7 -3 -14
-11 -18 -8 -3 -13 -15 -11 -30 1 -13 -2 -22 -7 -18 -5 3 -9 -2 -9 -12 0 -13
-3 -14 -13 -5 -11 8 -13 7 -12 -7 0 -9 5 -24 10 -32 4 -8 5 -12 0 -8 -4 4 -14
1 -21 -7 -17 -17 -18 -28 -1 -20 6 4 4 0 -6 -8 -14 -11 -15 -16 -5 -20 9 -4 7
-6 -4 -6 -9 -1 -20 -6 -24 -13 -5 -7 -2 -9 7 -4 8 4 3 -2 -11 -14 -14 -12 -19
-19 -12 -15 6 3 12 1 12 -4 0 -6 -7 -11 -15 -11 -9 0 -12 -6 -8 -17 4 -11 3
-14 -5 -9 -7 4 -12 2 -12 -4 0 -6 -4 -8 -10 -5 -5 3 -7 0 -4 -8 3 -8 1 -18 -5
-21 -5 -4 -7 -18 -5 -33 4 -23 3 -25 -11 -13 -14 11 -15 10 -6 -13 7 -19 6
-28 -4 -37 -7 -6 -16 -22 -19 -35 -4 -14 -13 -25 -21 -25 -19 0 -28 -17 -14
-26 8 -5 9 -3 4 6 -5 8 -4 11 3 6 7 -4 6 -15 -6 -35 -9 -16 -20 -27 -24 -25
-3 2 -9 0 -12 -5 -4 -5 -1 -13 4 -16 8 -5 6 -13 -6 -26 -9 -10 -20 -16 -25
-14 -4 3 -11 0 -15 -6 -4 -7 -3 -9 4 -5 7 4 10 -2 9 -14 -1 -12 -7 -18 -13
-16 -9 3 -11 -4 -8 -21 4 -23 3 -25 -11 -13 -14 12 -14 10 -5 -15 10 -26 9
-27 -7 -14 -9 8 -14 9 -10 2 4 -7 0 -17 -10 -23 -15 -9 -14 -10 7 -5 21 5 22
4 8 -5 -10 -6 -23 -20 -29 -32 -8 -14 -8 -18 0 -14 7 5 8 1 5 -9 -4 -9 -13
-14 -22 -10 -13 5 -13 3 -1 -12 9 -11 10 -14 2 -9 -8 4 -13 1 -13 -9 0 -9 -4
-14 -9 -10 -5 3 -13 0 -17 -6 -4 -7 -3 -9 3 -6 6 4 14 0 17 -8 3 -9 -3 -20
-13 -27 -11 -6 -17 -17 -15 -23 3 -6 -7 -24 -21 -39 -15 -16 -24 -35 -21 -42
3 -8 -1 -14 -9 -14 -7 0 -17 -5 -21 -12 -4 -7 -3 -8 4 -4 7 4 12 2 12 -3 0
-10 -14 -15 -33 -12 -5 1 -6 -3 -2 -8 3 -6 13 -8 23 -4 11 3 9 -1 -6 -12 -12
-9 -22 -22 -21 -28 3 -26 -2 -38 -13 -31 -8 5 -9 2 -5 -10 4 -10 3 -15 -3 -11
-6 3 -10 -1 -10 -10 0 -9 -4 -14 -8 -11 -4 2 -8 -8 -7 -22 0 -20 -5 -27 -18
-26 -14 2 -15 -1 -7 -11 9 -11 7 -12 -9 -8 -13 3 -21 1 -21 -8 0 -8 -6 -5 -15
7 -13 16 -14 16 -9 2 3 -10 1 -18 -5 -18 -6 0 -11 5 -11 11 0 8 -6 7 -17 -2
-11 -10 -14 -10 -9 -1 4 6 3 12 -3 12 -5 0 -12 -6 -14 -12 -4 -10 -6 -9 -6 1
-1 11 -4 11 -16 1 -12 -10 -15 -10 -15 1 0 11 -2 11 -10 -1 -7 -11 -10 -11
-10 -2 0 8 -5 10 -12 5 -21 -12 -38 -12 -38 0 0 7 -5 5 -10 -3 -6 -10 -10 -11
-10 -2 0 6 -7 12 -15 12 -8 0 -15 -5 -15 -12 0 -6 -7 -3 -15 8 -13 16 -14 16
-9 2 3 -10 1 -18 -5 -18 -6 0 -11 5 -11 12 0 9 -3 9 -12 0 -15 -15 -28 -15
-28 -1 0 5 5 7 12 3 7 -5 8 -3 3 5 -5 9 -11 9 -17 3 -6 -6 -17 -8 -26 -5 -8 4
-13 2 -9 -3 9 -16 -57 -11 -69 5 -9 11 -12 12 -19 1 -6 -9 -4 -11 6 -5 12 7
12 5 1 -6 -11 -12 -14 -12 -23 1 -8 12 -12 12 -16 2 -4 -10 -9 -9 -19 5 -13
17 -14 17 -8 0 3 -9 1 -17 -5 -17 -6 0 -11 5 -11 11 0 8 -6 7 -17 -2 -11 -10
-14 -10 -9 -1 4 6 3 12 -3 12 -5 0 -12 -6 -14 -12 -4 -10 -6 -9 -6 1 -1 11 -4
11 -16 1 -12 -10 -15 -10 -15 1 0 11 -2 11 -10 -1 -6 -10 -10 -11 -10 -2 0 6
-5 12 -11 12 -5 0 -8 -4 -4 -9 3 -5 0 -13 -6 -17 -7 -4 -9 -3 -5 4 3 6 2 13
-4 17 -5 3 -10 0 -10 -7 0 -9 -3 -10 -8 -2 -4 6 -14 10 -22 8 -8 -2 -27 -5
-42 -9 -15 -3 -29 -1 -33 5 -3 6 1 7 12 4 15 -4 15 -3 -2 8 -20 13 -26 43 -12
66 5 7 3 12 -5 13 -7 0 -4 4 7 9 19 8 19 9 1 9 -16 1 -16 3 -5 17 7 9 9 18 3
22 -13 10 -10 47 6 66 10 13 10 16 0 14 -7 -2 -15 3 -18 11 -3 10 0 12 13 7
15 -5 16 -4 5 9 -7 8 -9 15 -4 15 5 0 0 8 -11 17 -16 13 -17 15 -2 10 9 -4 17
-2 17 3 0 6 -5 10 -12 10 -6 0 -3 10 8 22 10 12 14 18 8 15 -7 -4 -17 0 -24 8
-11 13 -10 14 2 10 9 -4 15 0 15 9 0 8 -5 12 -11 9 -6 -4 -5 1 3 10 11 14 11
17 0 18 -8 0 -5 4 6 9 19 8 19 9 1 9 -16 1 -17 3 -5 18 11 13 12 17 1 21 -10
3 -9 9 5 24 11 12 13 18 4 16 -8 -2 -14 9 -16 30 -2 26 0 32 13 27 12 -4 13
-3 2 10 -7 8 -9 15 -4 15 5 0 0 8 -11 17 -16 13 -17 15 -2 10 9 -4 17 -2 17 3
0 6 -5 10 -12 10 -6 0 -3 9 8 21 10 11 14 20 9 19 -22 -5 -27 1 -15 15 10 12
10 15 -1 15 -10 1 -9 5 4 14 10 8 14 16 9 17 -6 2 -12 21 -15 42 -4 32 -2 37
11 32 12 -4 12 -1 -4 16 -10 12 -14 19 -7 16 8 -5 10 2 8 24 -3 18 -7 34 -9
37 -3 2 -1 13 5 23 7 14 6 19 -3 19 -8 1 -5 7 6 15 12 9 14 15 7 15 -9 0 -11
11 -7 40 3 23 1 40 -4 40 -6 0 -10 5 -10 11 0 5 6 7 13 3 6 -4 3 3 -8 16 l-20
23 25 -13 c19 -10 22 -10 13 0 -6 7 -9 19 -6 28 4 10 2 13 -5 8 -11 -7 -9 24
3 44 3 6 0 10 -7 10 -8 1 -6 6 6 15 19 14 11 21 -18 16 -5 -1 -4 4 3 12 6 8
10 27 7 42 -4 22 -2 26 11 20 14 -5 13 -2 -3 16 -12 15 -14 20 -4 15 8 -4 6 0
-5 10 -18 15 -18 16 -1 10 14 -5 17 -2 12 10 -4 9 -1 23 6 31 9 11 9 13 -2 11
-7 -2 -15 3 -18 11 -2 8 0 11 6 7 6 -3 14 -2 17 4 4 6 1 9 -6 8 -6 -2 -12 7
-14 19 -1 18 1 20 12 11 11 -8 12 -7 7 6 -3 9 -10 16 -16 16 -5 0 -6 6 -1 13
12 19 14 47 3 47 -6 0 -10 5 -10 11 0 5 6 7 13 3 6 -4 3 3 -8 16 l-20 23 25
-13 c19 -10 22 -10 13 0 -6 7 -9 19 -6 28 4 10 2 13 -5 8 -11 -7 -9 24 3 44 3
6 0 10 -7 10 -8 1 -6 6 6 15 11 8 14 15 8 15 -7 0 -12 7 -12 16 0 9 5 12 13 8
6 -4 4 2 -6 13 -14 16 -15 23 -6 29 8 5 10 3 5 -7 -4 -8 0 -5 8 5 16 20 16 20
16 0 0 -16 2 -17 10 -4 5 8 10 11 10 6 0 -5 7 -3 15 4 12 10 15 10 15 -1 0
-11 2 -11 10 1 5 8 12 11 16 7 4 -4 12 0 19 9 10 14 13 14 26 -3 13 -16 13
-17 -3 -4 -10 7 -18 9 -18 3 0 -14 28 -23 35 -11 4 5 10 7 15 4 5 -3 12 0 16
6 5 8 3 9 -7 4 -12 -7 -12 -6 0 6 11 11 14 11 18 1 4 -10 8 -10 19 -1 7 6 21
8 30 5 11 -4 15 -2 11 8 -4 10 -1 13 8 9 8 -3 13 -9 10 -13 -3 -5 -1 -12 5
-15 6 -4 9 -1 8 5 -2 7 7 16 20 21 15 6 21 5 17 -1 -3 -6 -1 -10 4 -10 6 0 11
7 11 15 0 8 5 15 11 15 5 0 7 -4 4 -10 -3 -5 -1 -10 4 -10 6 0 11 5 11 12 0 6
3 9 6 5 3 -3 16 -2 29 3 15 6 27 4 34 -3 9 -9 11 -8 6 4 -4 10 0 19 10 23 9 3
13 2 10 -4 -3 -6 -1 -10 4 -10 6 0 11 5 11 11 0 5 5 7 10 4 6 -3 10 -2 10 4 0
6 7 7 17 4 10 -4 14 -2 10 4 -3 5 0 10 8 10 8 0 12 -3 10 -7 -2 -4 2 -7 10 -7
8 0 13 5 12 10 -1 5 4 12 11 14 8 3 10 -1 6 -14 -5 -13 -2 -12 10 5 17 22 43
32 30 10 -4 -7 -3 -8 4 -4 7 4 12 14 12 22 0 8 5 14 11 14 5 0 8 -4 5 -8 -3
-5 1 -9 9 -9 8 0 12 4 9 9 -3 4 4 8 15 8 11 0 25 9 31 20 6 11 15 18 21 14 5
-3 18 0 27 7 14 11 15 11 5 -1 -7 -8 -13 -18 -13 -23 0 -11 25 14 33 33 3 9 6
10 6 3 1 -7 6 -13 12 -13 5 0 7 5 3 12 -5 8 -2 9 11 4 16 -6 16 -4 4 10 -13
16 -12 16 11 4 23 -12 24 -12 11 3 -8 10 -9 17 -3 17 6 0 14 -5 18 -12 5 -7
15 -2 32 18 13 16 21 23 18 17 -4 -7 -2 -13 3 -13 6 0 11 9 11 21 0 11 5 17
10 14 6 -4 8 -12 4 -18 -3 -7 1 -4 9 6 11 14 16 15 20 5 3 -7 6 -2 7 12 1 14
4 19 7 13 6 -16 40 0 66 31 10 11 16 14 12 6 -4 -8 2 -4 13 9 12 15 24 21 32
16 9 -6 11 -4 5 5 -6 10 -4 12 8 7 8 -3 18 0 21 8 3 10 0 12 -12 9 -12 -4 -11
-2 3 7 11 7 29 13 40 14 11 1 20 6 20 11 0 5 6 18 13 29 12 19 13 19 6 -4 -5
-21 -4 -22 9 -10 8 8 13 17 10 22 -4 7 13 11 31 8 5 -1 3 5 -4 14 -11 13 -10
15 3 10 8 -4 18 -1 22 4 3 6 12 8 18 4 7 -4 5 2 -3 12 -8 10 -10 16 -5 13 11
-6 37 16 29 25 -3 2 2 7 11 11 9 3 14 2 11 -2 -3 -5 1 -9 8 -9 8 0 11 8 8 19
-3 15 0 19 14 16 12 -2 20 4 22 17 2 11 8 25 14 30 6 6 7 3 3 -10 -6 -18 -5
-18 5 -2 6 9 8 22 5 27 -3 6 1 7 9 4 11 -4 19 2 25 19 5 14 16 28 23 32 10 6
11 5 1 -6 -7 -7 -13 -18 -13 -24 0 -5 8 2 18 18 10 15 22 24 25 20 4 -3 7 -1
7 4 0 6 -6 14 -12 16 -7 3 -3 6 8 6 12 1 26 7 32 14 10 12 12 17 12 38 0 5 5
7 10 4 6 -3 10 1 10 10 0 10 5 13 13 9 6 -4 9 -4 5 1 -4 4 4 16 17 27 14 11
23 23 21 26 -2 4 0 18 5 31 6 15 14 21 25 17 8 -3 12 -2 9 3 -3 6 3 15 12 21
17 11 17 11 1 6 -10 -3 -18 -1 -18 4 0 6 6 10 14 10 10 0 13 8 11 28 -2 15 -2
21 1 14 3 -6 10 -10 15 -6 5 3 9 0 9 -7 0 -7 3 -9 6 -6 4 4 1 14 -7 24 -11 13
-11 15 -1 9 9 -6 12 -3 10 10 -2 11 3 19 11 19 8 0 16 6 19 14 3 9 0 11 -8 6
-7 -4 -5 4 5 18 10 17 23 24 33 20 15 -4 15 -3 2 6 -13 9 -12 12 5 26 11 9 14
13 7 10 -11 -6 -12 -3 -2 14 6 12 15 19 21 16 5 -4 9 -1 9 4 0 6 -5 11 -12 11
-6 0 -3 6 7 14 11 8 24 12 29 9 5 -4 6 -1 2 6 -4 6 -11 9 -16 6 -5 -3 -12 0
-16 6 -4 7 -3 9 3 6 13 -8 35 16 31 34 -2 8 4 13 12 11 8 -2 12 0 8 3 -4 4 -2
17 4 29 16 27 16 38 4 55 -8 11 -8 13 2 7 18 -11 35 3 22 19 -8 10 -3 21 22
45 18 18 28 29 21 26 -6 -3 -14 -2 -18 4 -3 5 2 10 12 10 10 0 14 4 8 8 -5 4
-11 13 -13 21 -3 12 -1 12 14 0 16 -13 17 -12 7 6 -9 15 -8 22 5 33 16 13 16
13 0 8 -27 -8 -22 1 10 19 26 15 26 16 2 10 -22 -5 -23 -4 -9 7 9 7 14 19 11
27 -3 8 0 11 6 7 7 -4 9 1 7 14 -2 11 1 22 6 26 5 3 7 14 4 25 -5 15 -2 18 12
13 17 -5 17 -5 0 6 -18 11 -18 12 0 27 10 8 13 12 7 9 -8 -4 -11 3 -10 18 0
13 4 22 7 20 4 -2 10 3 13 12 4 10 2 13 -7 8 -6 -4 -2 4 11 18 13 14 19 29 14
32 -5 3 -12 17 -14 30 -4 19 -1 23 11 18 14 -5 14 -3 3 10 -10 13 -10 18 -1
24 8 5 9 3 4 -6 -6 -9 -4 -11 5 -5 10 6 9 11 -5 22 -17 11 -14 17 7 14 8 -1 5
20 -5 36 -9 14 9 27 25 17 7 -4 8 -3 4 4 -4 7 -14 12 -22 12 -8 0 -12 5 -9 10
4 6 9 8 13 6 4 -2 8 7 8 20 1 13 -2 24 -6 24 -4 0 -7 15 -6 34 0 19 4 32 9 29
4 -2 7 1 7 6 0 6 -5 11 -11 11 -6 0 -3 7 5 16 12 11 13 20 6 33 -5 10 -6 21
-2 25 3 4 0 12 -8 17 -13 9 -13 10 1 6 9 -3 16 1 16 9 0 7 -5 11 -11 8 -6 -3
-2 2 9 12 16 13 17 16 3 11 -18 -6 -34 8 -20 17 5 3 9 16 8 28 -1 13 6 26 14
30 10 5 7 7 -10 7 -19 1 -22 3 -11 10 13 8 13 12 0 27 -13 16 -12 17 6 11 18
-6 19 -6 3 6 -14 11 -15 16 -5 27 9 10 9 13 0 17 -7 3 -13 9 -13 14 0 6 6 7
13 3 6 -4 3 3 -7 15 -15 16 -16 20 -5 16 10 -4 16 0 16 10 0 8 -5 15 -10 15
-6 0 -8 3 -4 6 3 3 1 18 -4 32 -9 23 -8 24 7 11 16 -13 16 -12 6 7 -6 11 -9
32 -8 47 2 14 0 24 -5 22 -4 -3 -10 -1 -13 4 -4 5 2 12 11 14 16 4 16 5 -1 6
-16 1 -17 3 -5 18 8 9 9 14 3 10 -7 -4 -15 0 -18 9 -3 8 -2 13 3 10 5 -3 11 3
14 15 5 17 3 18 -9 8 -8 -6 -17 -9 -21 -5 -3 3 -2 6 4 6 6 0 14 7 17 16 3 8 2
13 -3 10 -5 -3 -12 1 -15 10 -3 8 -2 13 3 9 11 -6 8 22 -4 32 -4 4 -5 2 0 -6
6 -10 4 -12 -5 -6 -10 6 -10 11 3 20 18 13 24 31 8 20 -11 -6 -25 12 -26 37
-1 10 3 14 9 11 6 -4 5 1 -3 10 -7 9 -11 28 -9 42 5 22 3 23 -10 13 -13 -12
-14 -10 -2 11 11 21 10 23 -4 18 -14 -5 -15 -3 -6 13 7 14 6 22 -5 34 -20 19
-19 30 1 22 14 -5 15 -4 4 9 -7 8 -17 12 -23 8 -6 -4 -8 0 -4 10 3 10 2 17 -3
17 -6 0 -10 5 -10 11 0 5 5 7 10 4 6 -3 10 -1 10 4 0 10 -14 15 -33 12 -5 -1
-6 3 -2 9 3 6 11 7 17 4 7 -4 8 -2 4 4 -4 7 -15 12 -24 13 -14 0 -13 2 3 9 11
5 15 9 8 9 -7 1 -17 11 -23 24 -11 21 -10 21 4 3 9 -11 16 -15 16 -9 0 7 -7
18 -15 27 -18 18 -19 32 -2 40 6 3 1 3 -13 -1 -22 -5 -23 -4 -12 10 11 13 10
18 -8 30 -13 9 -17 17 -11 22 6 3 11 12 11 18 0 7 -4 6 -10 -3 -9 -14 -12 -8
-9 16 0 3 -7 12 -17 19 -18 12 -30 50 -13 39 5 -3 9 0 9 5 0 6 -7 11 -16 11
-8 0 -12 5 -9 10 3 6 1 10 -4 10 -6 0 -11 5 -11 11 0 5 4 7 10 4 6 -4 7 1 3
11 -4 11 -8 13 -11 6 -8 -24 -20 -11 -17 18 2 17 -1 30 -6 30 -6 0 -7 -4 -4
-10 3 -5 1 -10 -6 -10 -7 0 -9 10 -7 24 4 18 1 23 -10 18 -10 -3 -13 -1 -8 6
4 7 3 12 -3 12 -6 0 -8 8 -4 18 3 9 3 14 -2 10 -4 -4 -19 7 -32 24 -28 39 -30
52 -2 18 18 -22 19 -22 10 -3 -6 12 -19 27 -29 32 -9 6 -13 11 -9 11 4 0 2 6
-5 14 -7 8 -17 11 -23 8 -5 -3 -4 1 3 10 10 13 10 17 -3 22 -9 3 -13 2 -10 -4
14 -23 -3 -7 -25 23 -19 26 -20 29 -3 15 27 -25 38 -23 13 2 -11 11 -24 20
-30 20 -5 0 -10 7 -10 16 0 9 -5 12 -12 8 -9 -5 -8 -2 1 9 8 10 11 20 7 24 -3
3 -6 1 -6 -5 0 -7 -5 -12 -11 -12 -5 0 -7 5 -4 10 3 6 -4 10 -17 10 -18 0 -20
2 -8 10 14 9 7 15 -15 10 -5 -1 -4 4 3 11 6 7 12 18 12 24 0 5 -4 3 -10 -5 -7
-12 -12 -11 -28 8 -10 12 -23 18 -28 14 -4 -4 -2 1 5 11 12 15 11 17 -8 17
-13 0 -21 6 -21 16 0 10 -5 14 -16 10 -8 -3 -13 -2 -11 2 7 10 -19 32 -28 24
-4 -4 -3 3 3 15 10 18 9 20 -8 16 -16 -4 -20 0 -20 17 0 20 -2 21 -17 9 -11
-10 -14 -10 -9 -1 4 7 2 12 -4 12 -7 0 -9 9 -5 23 5 18 4 19 -5 7 -9 -11 -13
-12 -17 -2 -2 6 -9 10 -13 7 -5 -3 -12 0 -16 6 -4 7 -3 9 4 5 6 -3 13 -3 16 2
2 4 -4 9 -15 9 -24 2 -51 22 -44 33 3 4 -2 13 -9 19 -10 8 -16 9 -21 1 -3 -5
-12 -10 -18 -10 -9 0 -9 2 -1 8 18 11 -7 32 -37 32 -8 0 -7 6 2 17 10 12 10
15 1 9 -17 -10 -52 2 -52 20 0 8 -9 14 -20 14 -11 0 -20 5 -20 11 0 5 -5 7
-12 3 -8 -5 -9 -2 -5 10 6 14 4 15 -14 5 -15 -8 -19 -8 -15 0 4 6 1 11 -8 11
-8 0 -18 4 -21 10 -4 6 1 7 12 4 14 -5 15 -4 4 4 -8 6 -20 8 -28 5 -8 -3 -13
2 -13 13 0 17 -1 16 -15 -2 -15 -18 -15 -18 -8 0 4 13 3 17 -5 12 -7 -4 -12
-2 -12 3 0 6 -7 11 -16 11 -8 0 -13 4 -10 9 3 5 -1 12 -10 15 -8 3 -13 2 -10
-3 4 -5 -3 -7 -15 -4 -16 5 -18 8 -7 15 9 7 7 8 -8 5 -12 -2 -28 0 -35 5 -11
8 -10 9 3 4 10 -3 20 0 24 6 4 6 3 8 -3 5 -5 -3 -22 1 -38 9 -21 11 -25 11
-16 1 8 -10 7 -14 -4 -14 -14 0 -19 10 -16 29 0 4 -7 4 -16 1 -11 -5 -14 -3
-8 6 5 10 2 11 -13 7 -13 -4 -22 -1 -26 9 -3 9 -10 14 -15 10 -5 -3 -12 -1
-15 4 -3 5 -16 7 -28 3 -16 -4 -19 -2 -13 8 6 9 4 11 -5 5 -8 -5 -19 -1 -28
11 -14 19 -15 19 -8 0 6 -18 5 -19 -11 -4 -25 21 -56 31 -48 15 4 -6 1 -5 -7
4 -7 9 -18 14 -25 12 -6 -2 -14 0 -17 6 -3 5 -16 7 -28 3 -14 -3 -19 -2 -14 6
4 7 3 12 -3 12 -5 0 -12 -6 -14 -12 -4 -10 -6 -10 -6 0 -1 6 -6 12 -12 12 -5
0 -7 -6 -3 -12 6 -10 4 -10 -8 0 -16 13 -53 24 -75 23 -32 -2 -39 -2 -57 2
-11 2 -22 9 -24 15 -2 7 -8 12 -13 12 -6 0 -8 -4 -5 -8 3 -5 -1 -9 -9 -9 -8 0
-12 4 -10 8 3 4 -9 9 -25 11 -17 3 -30 1 -30 -4 0 -5 -5 -6 -10 -3 -6 4 -7 12
-3 18 4 7 0 6 -10 -2 -13 -10 -17 -10 -17 -1 0 10 -3 10 -15 0 -11 -9 -15 -9
-15 -1 0 7 -4 9 -10 6 -18 -11 -51 -14 -45 -4 4 5 -1 9 -10 9 -9 0 -13 -4 -10
-10 3 -5 2 -10 -4 -10 -5 0 -11 5 -13 12 -5 15 -48 18 -48 4 0 -6 -5 -4 -10 4
-7 11 -10 11 -10 2 0 -8 -5 -10 -12 -6 -22 14 -58 10 -58 -5 0 -11 -4 -10 -15
5 -11 14 -14 15 -15 4 0 -13 -1 -13 -10 0 -6 10 -10 11 -10 3 0 -9 -7 -10 -22
-5 -26 10 -80 8 -96 -2 -6 -3 -14 -1 -17 4 -5 7 -12 5 -21 -7 -11 -14 -13 -15
-14 -3 0 13 -1 13 -10 0 -6 -10 -10 -11 -10 -2 0 6 -5 12 -11 12 -5 0 -7 -6
-3 -12 4 -7 -3 -4 -15 6 -18 16 -21 17 -16 3z m195 -3 c0 -8 -19 -13 -24 -6
-3 5 1 9 9 9 8 0 15 -2 15 -3z m-75 -264 c-3 -6 2 -13 11 -17 11 -4 19 -2 22
6 3 8 9 7 19 -6 14 -17 14 -17 9 1 -6 16 -4 17 9 6 12 -10 15 -10 15 5 0 14 3
13 21 -6 11 -13 19 -17 16 -9 -4 12 4 14 42 11 25 -2 52 -8 59 -13 9 -8 11 -7
7 4 -4 11 1 14 22 12 15 -2 42 -4 58 -5 17 -1 38 -9 48 -18 16 -13 17 -13 12
0 -4 10 0 16 10 16 8 0 15 -5 15 -10 0 -6 3 -8 6 -5 3 4 19 2 35 -2 18 -5 29
-5 29 1 0 6 5 7 10 4 6 -4 7 -11 4 -17 -4 -6 -2 -8 4 -4 5 3 13 0 16 -6 3 -7
3 -2 0 12 -6 25 -6 25 12 5 13 -13 32 -20 56 -20 25 0 38 -5 38 -13 0 -7 5
-10 10 -7 6 4 7 11 4 17 -4 7 -2 8 5 4 6 -4 9 -12 6 -17 -4 -5 -3 -10 2 -10
47 -7 63 -6 58 1 -3 4 6 3 19 -3 13 -7 22 -15 20 -19 -3 -4 9 -5 26 -3 16 2
33 -1 36 -7 5 -7 2 -8 -6 -3 -9 5 -11 4 -6 -4 6 -9 11 -9 24 1 10 8 13 9 9 1
-4 -6 -3 -14 3 -18 5 -3 10 2 10 12 1 14 4 13 15 -7 8 -14 14 -19 15 -12 0 10
3 10 14 0 8 -7 11 -17 8 -23 -3 -5 1 -4 10 3 16 13 52 6 42 -9 -3 -5 3 -6 12
-2 14 5 16 3 10 -13 -6 -15 -5 -17 5 -6 18 17 29 15 22 -5 -6 -16 -5 -17 12
-3 15 12 17 12 10 1 -6 -11 -4 -13 8 -8 12 4 17 1 17 -9 0 -11 6 -15 20 -11
11 3 20 1 20 -5 0 -5 4 -7 9 -3 5 3 16 -3 23 -13 7 -10 20 -22 28 -27 13 -8
13 -7 1 8 -12 15 -12 17 3 11 9 -3 16 -15 16 -25 0 -13 5 -17 17 -12 10 4 14
2 10 -4 -4 -6 0 -13 8 -16 10 -4 12 -1 8 11 -5 12 -1 11 17 -5 12 -12 27 -20
31 -17 5 3 6 -2 3 -10 -4 -11 0 -16 10 -16 9 0 16 -6 16 -12 0 -9 4 -8 11 2 9
12 10 11 6 -8 -3 -12 -1 -20 3 -17 14 9 41 -7 36 -21 -3 -8 0 -11 10 -7 7 3
14 1 14 -5 0 -5 9 -12 20 -15 11 -3 20 -13 20 -22 0 -15 3 -15 16 -5 8 8 14 9
13 4 -4 -21 2 -34 16 -34 8 0 15 -8 15 -17 0 -16 2 -16 11 -3 8 11 9 8 5 -15
-5 -20 -4 -25 3 -16 8 12 12 12 26 -2 9 -10 21 -14 27 -11 6 4 8 2 4 -4 -3 -5
-3 -12 1 -15 5 -2 2 -2 -4 -1 -7 2 -13 -1 -13 -6 0 -6 10 -10 21 -10 17 0 20
-5 16 -21 -4 -16 -3 -19 5 -11 15 15 51 -25 43 -47 -4 -11 0 -10 17 4 13 11
17 13 11 5 -19 -21 -16 -33 8 -27 16 4 18 3 8 -9 -9 -11 -9 -14 0 -14 7 0 9
-4 6 -10 -3 -5 1 -10 9 -10 9 0 16 -5 16 -11 0 -5 5 -7 11 -3 7 4 6 -2 -2 -17
-12 -23 -11 -23 6 -9 11 9 16 10 11 3 -4 -7 -2 -13 4 -13 13 0 40 -61 33 -74
-4 -5 -1 -6 5 -2 7 4 12 2 12 -4 0 -6 5 -8 10 -5 6 3 10 -3 10 -15 0 -14 4
-19 13 -14 7 5 7 1 -3 -12 -8 -10 -10 -16 -6 -12 5 4 17 -2 27 -14 23 -26 25
-35 4 -18 -13 11 -14 10 -9 -4 5 -12 14 -16 28 -12 20 5 21 5 2 -9 -18 -14
-18 -15 -2 -15 12 0 16 -5 13 -15 -4 -8 -2 -17 4 -20 5 -4 6 -11 3 -17 -4 -7
-2 -8 5 -4 9 6 9 12 -1 24 -12 15 -11 16 4 4 10 -8 14 -20 11 -29 -5 -12 -3
-14 6 -8 10 6 11 2 6 -15 -6 -20 -5 -22 11 -16 15 6 16 5 7 -5 -10 -10 -9 -15
5 -25 15 -12 15 -15 2 -24 -13 -8 -13 -10 2 -10 12 0 15 -5 11 -17 -5 -12 -3
-14 7 -8 10 6 12 4 7 -8 -8 -21 2 -49 14 -41 5 3 9 -7 9 -21 0 -15 4 -24 10
-20 5 3 7 0 4 -8 -3 -8 -1 -18 5 -21 6 -4 7 -14 4 -23 -5 -12 -3 -14 8 -8 11
7 11 5 -1 -10 -14 -17 -13 -18 2 -12 13 5 16 1 12 -19 -3 -15 0 -24 8 -24 9 0
8 -3 -2 -10 -10 -6 -11 -10 -2 -10 6 0 11 -6 10 -12 -2 -7 4 -12 12 -10 11 2
11 -1 -2 -11 -19 -15 -24 -28 -10 -26 21 4 28 -3 27 -23 -1 -13 2 -29 8 -36 7
-9 5 -17 -9 -27 -14 -12 -15 -14 -3 -9 10 3 20 0 25 -7 4 -7 3 -10 -3 -6 -6 4
-13 0 -17 -8 -3 -8 0 -17 6 -21 7 -4 8 -3 4 4 -11 18 0 14 15 -5 8 -10 9 -14
2 -10 -8 5 -11 0 -10 -13 1 -11 6 -20 12 -20 5 0 3 -5 -5 -10 -8 -5 -10 -10
-4 -10 7 0 14 -13 16 -30 3 -22 1 -30 -11 -31 -11 0 -9 -4 7 -11 25 -13 31
-33 6 -24 -13 5 -14 4 -6 -7 7 -8 9 -17 5 -20 -3 -4 -2 -7 4 -7 6 0 9 -14 7
-31 -3 -20 0 -28 7 -23 8 5 9 2 1 -12 -6 -11 -7 -27 -1 -41 7 -18 5 -23 -7
-23 -8 0 -13 -4 -9 -10 3 -5 13 -6 23 -3 13 4 13 2 -3 -10 -15 -13 -17 -17 -5
-17 10 -1 9 -4 -5 -10 l-20 -9 20 0 c17 -1 17 -3 5 -11 -13 -9 -13 -10 0 -10
13 0 13 -1 0 -10 -13 -8 -12 -10 2 -10 18 0 20 -23 5 -47 -5 -8 -3 -13 5 -14
10 0 10 -2 -1 -6 -11 -5 -11 -7 0 -14 11 -7 9 -9 -6 -9 -16 0 -17 -2 -5 -9 8
-6 18 -7 24 -4 5 3 6 1 2 -6 -4 -6 -13 -8 -19 -4 -8 4 -7 1 1 -9 10 -13 10
-17 0 -22 -10 -5 -10 -7 0 -12 19 -9 14 -24 -10 -34 -18 -7 -19 -9 -5 -9 9 -1
17 -6 17 -12 0 -5 -6 -7 -12 -3 -9 5 -9 2 1 -9 12 -15 11 -17 -3 -17 -9 0 -16
-5 -16 -11 0 -5 4 -8 9 -4 5 3 12 1 16 -5 3 -5 0 -10 -7 -10 -9 0 -9 -3 2 -10
11 -7 11 -10 2 -10 -8 0 -10 -5 -6 -12 5 -8 1 -9 -12 -5 -18 7 -18 7 0 -8 14
-11 16 -15 5 -15 -11 0 -11 -2 -1 -8 9 -6 10 -16 3 -34 -5 -14 -7 -29 -3 -34
4 -4 1 -4 -7 1 -9 5 -12 3 -9 -6 3 -8 11 -13 18 -11 6 1 3 -9 -9 -24 -22 -27
-28 -50 -12 -40 5 4 8 -1 7 -11 -2 -9 -11 -20 -22 -24 -19 -7 -19 -8 0 -8 20
-1 20 -1 0 -17 -10 -8 -14 -13 -7 -10 6 4 15 1 19 -5 4 -7 3 -9 -2 -6 -6 3
-16 2 -24 -4 -9 -5 -10 -9 -4 -9 7 0 14 -7 17 -14 4 -10 1 -13 -9 -9 -10 4
-12 0 -8 -11 4 -9 -1 -25 -10 -35 -9 -10 -13 -21 -9 -25 12 -11 12 -36 1 -43
-7 -3 -8 -1 -4 5 11 18 0 14 -15 -5 -10 -11 -10 -14 -1 -9 7 4 12 1 12 -9 0
-9 -4 -14 -9 -11 -5 4 -7 -4 -3 -16 4 -16 2 -19 -9 -13 -12 7 -12 6 -1 -7 10
-13 10 -18 1 -24 -8 -4 -9 -3 -5 4 10 17 1 15 -14 -4 -8 -8 -9 -14 -4 -13 23
4 26 -2 8 -16 -16 -13 -17 -16 -4 -25 11 -7 11 -10 2 -10 -7 0 -11 -4 -7 -9 3
-5 0 -13 -6 -17 -8 -4 -9 -3 -5 4 4 7 2 12 -3 12 -11 0 -13 -11 -14 -58 0 -16
-4 -21 -14 -18 -8 3 -12 2 -9 -2 3 -5 -4 -23 -14 -40 -13 -22 -16 -33 -8 -38
6 -4 8 -3 4 4 -3 6 -2 13 3 17 6 3 8 -4 6 -16 -5 -25 -15 -38 -15 -20 0 7 -4
10 -8 7 -5 -3 -8 -18 -7 -34 1 -21 -3 -29 -14 -28 -9 1 -16 -6 -16 -14 0 -8
-6 -20 -13 -25 -7 -6 -14 -20 -15 -33 -1 -17 -6 -21 -22 -17 -11 3 -14 2 -7
-1 6 -3 12 -11 12 -17 0 -5 -3 -7 -7 -4 -3 4 -12 2 -20 -4 -9 -8 -10 -15 -3
-24 8 -10 6 -17 -9 -27 -12 -8 -18 -18 -13 -23 4 -4 -1 -5 -10 -2 -10 3 -17 3
-17 -1 4 -25 -2 -42 -13 -36 -8 5 -9 2 -5 -10 6 -14 3 -16 -16 -11 -12 3 -17
3 -12 -2 18 -14 15 -32 -5 -38 -11 -4 -20 -11 -20 -16 0 -6 -4 -7 -10 -4 -6 3
-7 -1 -4 -9 4 -9 1 -16 -6 -16 -7 0 -10 -7 -6 -15 3 -8 2 -14 -2 -14 -21 3
-32 -2 -26 -13 5 -8 2 -9 -11 -4 -15 5 -16 4 -6 -8 11 -13 8 -14 -16 -11 -15
2 -22 2 -15 -1 6 -3 12 -10 12 -15 0 -6 -4 -7 -10 -4 -8 5 -14 -14 -12 -36 1
-4 -9 -4 -21 -1 -20 5 -21 4 -8 -11 12 -15 12 -17 -4 -11 -14 6 -16 4 -10 -6
5 -8 4 -11 -3 -6 -6 3 -15 -2 -21 -11 -6 -10 -11 -14 -11 -9 0 13 -40 -30 -40
-44 0 -5 -5 -10 -11 -10 -5 0 -7 5 -3 11 4 7 -7 1 -25 -12 -35 -26 -41 -35
-12 -19 27 14 41 12 16 -2 -11 -7 -29 -12 -40 -13 -11 -1 -21 -7 -21 -13 -3
-25 -5 -27 -15 -12 -9 12 -10 11 -6 -6 4 -18 0 -22 -18 -19 -17 1 -22 -2 -20
-15 2 -13 -3 -16 -21 -14 -15 1 -22 -2 -17 -9 4 -7 0 -8 -12 -3 -15 5 -16 4
-6 -8 10 -12 8 -14 -13 -12 -16 2 -23 -1 -19 -7 4 -6 0 -8 -10 -4 -9 3 -19 1
-23 -5 -4 -6 -3 -8 4 -4 6 3 13 2 16 -3 4 -5 -5 -8 -19 -6 -19 2 -23 -1 -15
-10 8 -9 4 -12 -13 -10 -14 2 -30 -5 -37 -15 -7 -10 -19 -16 -27 -13 -8 3 -13
-2 -14 -13 0 -13 -2 -15 -6 -5 -4 11 -10 8 -25 -10 l-19 -24 6 25 c6 22 5 23
-6 9 -8 -9 -29 -22 -46 -29 -20 -7 -30 -17 -26 -24 5 -8 3 -8 -8 0 -19 14 -45
11 -42 -4 2 -7 -6 -12 -17 -12 -11 0 -20 -6 -20 -12 0 -9 -3 -8 -10 2 -8 12
-10 12 -16 -3 -5 -14 -9 -15 -20 -6 -11 9 -15 8 -20 -5 -3 -9 -13 -16 -21 -16
-8 0 -11 5 -7 12 4 7 3 8 -4 4 -7 -4 -12 -15 -12 -24 0 -10 -3 -13 -8 -7 -4 6
-15 11 -25 11 -14 2 -15 -1 -6 -12 10 -12 8 -13 -7 -7 -10 3 -22 11 -25 16 -3
5 -9 1 -12 -8 -5 -10 -3 -14 5 -9 7 4 8 3 4 -5 -6 -9 -11 -9 -24 1 -14 11 -15
10 -9 -6 6 -16 5 -17 -8 -6 -14 11 -19 7 -16 -13 1 -4 -7 -3 -18 3 -31 16 -51
13 -45 -7 5 -15 4 -15 -4 -4 -12 16 -46 25 -36 9 4 -6 -16 -8 -54 -6 -43 3
-58 0 -55 -8 4 -11 -15 -12 -37 -4 -3 1 -9 2 -13 1 -4 -1 -3 8 3 19 6 11 8 20
4 20 -3 0 -1 7 6 15 11 13 10 14 -6 8 -18 -7 -18 -6 -1 20 10 15 13 26 6 25
-6 -2 -14 3 -17 11 -3 10 0 12 13 7 15 -5 16 -4 5 9 -7 8 -9 15 -4 15 5 0 0 8
-11 17 -16 13 -17 15 -2 10 15 -6 16 -2 11 21 -4 15 -11 33 -17 40 -7 9 -5 11
9 6 15 -6 17 -4 7 6 -9 10 -10 17 -2 27 9 10 8 13 -2 14 -8 0 -5 4 6 9 19 8
19 9 1 9 -16 1 -17 3 -5 18 11 13 12 17 1 21 -10 3 -9 9 4 23 17 19 17 20 -2
12 -18 -7 -18 -6 -1 20 10 15 13 26 6 25 -6 -2 -14 3 -17 11 -3 10 0 12 13 7
15 -5 16 -4 5 9 -7 8 -9 15 -4 15 5 0 0 8 -11 17 -16 13 -17 15 -2 10 19 -7
20 -2 8 28 -5 11 -4 28 1 38 6 12 5 17 -4 17 -8 1 -6 6 5 14 10 8 14 16 9 17
-6 2 -12 21 -15 42 -4 32 -2 37 11 32 12 -4 12 -1 -4 16 -12 15 -14 20 -4 15
8 -4 6 0 -5 10 -18 15 -18 16 -2 10 15 -5 17 -2 11 17 -13 41 -10 82 6 79 10
-1 9 2 -4 13 -15 11 -16 15 -5 16 10 0 10 2 1 6 -6 2 -9 10 -5 16 12 19 14 47
3 47 -6 0 -10 5 -10 11 0 5 6 7 13 3 6 -4 3 3 -8 16 l-20 23 25 -13 c19 -10
22 -10 13 0 -6 7 -9 19 -6 28 4 10 2 13 -5 8 -11 -7 -9 24 3 44 3 6 0 10 -7
10 -8 1 -6 6 6 15 19 14 11 21 -18 16 -5 -1 -4 4 3 12 6 8 10 27 7 42 -4 22
-2 26 11 20 14 -5 13 -2 -3 16 -12 15 -14 20 -4 15 8 -4 6 0 -5 10 -17 14 -17
16 -2 11 19 -7 20 -2 7 28 -5 13 -3 26 7 37 14 16 14 17 -7 13 -18 -3 -20 -2
-10 10 6 8 8 20 4 26 -4 8 -3 9 4 5 7 -4 12 -2 12 3 0 6 -4 11 -9 11 -5 0 -11
7 -14 14 -4 9 -1 13 6 10 7 -2 13 4 14 16 1 11 -2 20 -8 20 -5 0 -9 5 -9 11 0
5 6 7 13 3 7 -5 6 0 -3 11 -14 17 -13 18 5 11 15 -5 17 -4 8 5 -6 6 -9 18 -6
27 4 10 2 13 -5 8 -11 -7 -9 24 3 44 3 6 0 10 -7 10 -8 1 -6 6 6 15 19 14 11
21 -18 16 -5 -1 -4 4 3 12 6 8 10 27 7 42 -4 22 -2 26 11 20 14 -5 13 -2 -3
16 -10 12 -14 19 -7 16 8 -5 10 2 8 24 -3 18 -7 34 -9 37 -3 2 -1 13 5 23 7
14 6 19 -3 19 -8 1 -5 7 6 15 11 8 15 15 8 15 -6 0 -9 9 -7 20 2 11 -1 22 -6
26 -6 4 -6 11 2 20 9 11 8 14 -2 15 -8 0 -5 4 6 9 16 7 17 9 3 9 -22 1 -32 17
-17 27 8 5 9 3 4 -7 -7 -12 -6 -12 6 0 11 11 12 14 1 18 -10 4 -9 10 4 24 17
19 17 20 -2 13 -17 -7 -17 -6 -5 9 9 11 10 17 2 17 -6 0 -11 5 -11 11 0 5 6 7
13 3 7 -5 7 -1 -3 12 -22 29 -24 30 -17 12 4 -10 2 -18 -3 -18 -6 0 -10 4 -10
8 0 4 -9 8 -20 9 -13 1 -18 -2 -13 -10 4 -7 -1 -6 -10 2 -16 12 -17 12 -11 -5
7 -19 6 -19 -8 0 -11 13 -17 16 -22 7 -4 -6 -12 -9 -17 -6 -5 4 -18 8 -30 10
-17 4 -19 2 -9 -10 17 -21 5 -19 -16 2 -18 18 -48 28 -38 12 3 -5 11 -6 17 -3
7 4 9 3 4 -1 -11 -13 -47 -13 -41 -1 3 6 -2 2 -10 -8 -9 -11 -16 -14 -16 -7 0
7 -4 10 -9 7 -5 -4 -12 0 -14 6 -3 8 -6 6 -6 -4 -1 -10 -4 -18 -8 -18 -12 0
-2 -124 11 -133 7 -6 4 -7 -8 -3 -13 5 -17 2 -12 -9 3 -8 9 -22 13 -32 5 -12
3 -14 -8 -8 -12 8 -12 6 0 -8 12 -15 11 -17 -3 -17 -9 0 -16 -5 -16 -11 0 -5
5 -7 10 -4 10 6 11 5 15 -33 2 -19 0 -20 -13 -10 -13 11 -14 10 -4 -9 7 -12
17 -24 24 -26 8 -3 5 -6 -6 -6 -15 -1 -16 -4 -6 -16 11 -13 10 -14 -6 -8 -16
6 -17 4 -7 -8 7 -9 14 -24 16 -35 1 -10 6 -25 11 -32 4 -8 3 -11 -5 -10 -6 2
-14 -3 -17 -11 -2 -8 0 -11 5 -8 5 3 10 0 10 -8 0 -8 -5 -11 -10 -8 -5 3 -7 0
-5 -8 3 -8 11 -13 18 -11 10 2 11 0 2 -10 -17 -21 -18 -118 -1 -130 11 -8 10
-9 -5 -4 -19 6 -19 7 2 -43 4 -10 1 -12 -9 -6 -12 8 -12 6 0 -8 12 -15 11 -17
-3 -17 -9 0 -16 -5 -16 -11 0 -5 5 -7 10 -4 10 6 11 5 15 -33 2 -19 0 -20 -13
-10 -13 11 -14 10 -4 -9 7 -12 17 -24 24 -26 8 -4 7 -6 -4 -6 -14 -1 -15 -6
-8 -31 7 -25 6 -30 -8 -30 -14 0 -14 -2 -3 -9 8 -5 10 -14 6 -21 -5 -8 -4 -11
3 -6 6 4 10 -1 9 -13 -1 -12 -7 -17 -17 -14 -8 3 -5 -4 9 -16 17 -16 19 -21 7
-21 -10 0 -13 -5 -9 -17 5 -12 3 -14 -8 -8 -11 7 -12 6 -2 -6 7 -9 14 -24 16
-35 1 -10 6 -25 11 -32 4 -8 3 -11 -5 -10 -6 2 -14 -3 -17 -11 -2 -8 0 -11 5
-8 5 3 10 0 10 -8 0 -8 -5 -11 -10 -8 -5 3 -7 0 -5 -8 3 -8 11 -13 17 -11 7 1
10 -2 6 -8 -3 -6 -12 -7 -18 -4 -9 5 -9 4 -1 -5 7 -7 8 -29 4 -57 -5 -35 -3
-49 9 -62 15 -15 14 -15 -3 -9 -15 6 -17 4 -11 -10 13 -34 13 -63 -1 -63 -8 0
-14 -5 -14 -11 0 -5 5 -7 10 -4 10 6 11 5 15 -33 2 -19 0 -20 -13 -10 -13 11
-14 10 -4 -9 7 -12 17 -24 24 -26 8 -3 5 -6 -6 -6 -15 -1 -16 -4 -6 -16 11
-13 10 -14 -6 -8 -16 6 -17 4 -7 -8 7 -9 14 -24 16 -35 1 -10 6 -25 11 -32 4
-8 3 -11 -5 -10 -6 2 -14 -3 -17 -11 -2 -8 0 -11 5 -8 5 3 10 0 10 -8 0 -8 -4
-12 -9 -9 -4 3 -8 0 -8 -5 0 -6 8 -12 18 -12 13 -1 13 -2 2 -5 -20 -6 -18
-122 2 -136 10 -7 9 -8 -4 -4 -21 6 -22 2 -8 -25 7 -13 7 -19 1 -19 -7 0 -7
-9 -1 -25 5 -14 7 -25 4 -25 -4 0 -1 -7 6 -16 11 -12 11 -15 0 -12 -7 2 -15
-3 -18 -11 -2 -8 0 -11 5 -8 5 3 10 0 10 -8 0 -8 -4 -12 -9 -9 -4 3 -8 0 -8
-5 0 -6 8 -11 18 -12 15 0 15 -1 -2 -8 -13 -5 -16 -10 -8 -15 8 -5 8 -14 2
-32 -12 -31 -12 -37 -2 -30 4 2 8 -4 8 -14 0 -14 -4 -16 -18 -9 -11 6 -19 5
-24 -3 -4 -7 -3 -8 4 -4 7 4 12 3 12 -3 0 -5 -9 -9 -19 -8 -12 1 -17 6 -13 17
3 8 2 12 -3 8 -4 -4 -14 -3 -22 4 -11 8 -12 7 -7 -6 5 -12 2 -15 -10 -10 -9 3
-13 11 -10 18 3 6 -1 3 -9 -7 -10 -12 -16 -14 -19 -6 -4 13 -68 19 -68 6 0 -5
-5 -5 -10 -2 -6 4 -7 12 -3 18 4 7 0 6 -10 -2 -14 -11 -17 -11 -17 0 0 10 -3
10 -12 1 -7 -7 -17 -12 -22 -12 -6 0 -4 5 4 11 12 8 7 9 -17 6 -32 -3 -45 7
-20 16 6 3 2 4 -10 4 -12 -1 -20 -4 -18 -7 2 -3 -5 -6 -15 -6 -10 0 -16 5 -13
10 4 5 -1 7 -10 3 -9 -3 -19 -1 -23 5 -5 7 -2 8 6 3 9 -5 11 -4 6 4 -6 9 -11
9 -22 0 -8 -6 -14 -7 -14 -3 0 5 -10 15 -22 23 -21 13 -22 13 -10 -2 10 -12
10 -17 1 -23 -8 -4 -9 -3 -5 4 6 10 -15 17 -28 10 -2 -2 -13 5 -23 15 -11 9
-23 14 -26 10 -4 -3 -7 0 -7 7 0 11 -3 11 -12 2 -7 -7 -17 -12 -22 -12 -6 0
-6 4 1 8 9 6 6 11 -8 21 -12 7 -19 8 -15 3 3 -5 -1 -9 -9 -9 -8 0 -11 5 -8 10
4 6 0 8 -10 4 -9 -3 -19 -2 -22 4 -4 5 -10 7 -14 5 -4 -3 -20 6 -36 20 -31 27
-42 31 -29 11 5 -7 2 -5 -8 5 -9 10 -23 18 -32 18 -9 0 -16 5 -16 11 0 8 -4 8
-14 0 -11 -10 -16 -8 -21 8 -3 12 -13 21 -22 21 -8 0 -13 6 -10 13 3 7 -3 13
-14 13 -10 0 -15 -5 -11 -11 4 -6 0 -3 -10 7 -9 10 -22 18 -30 18 -18 1 -48
25 -48 39 0 6 -4 12 -10 12 -5 1 -14 3 -20 4 -5 1 -15 3 -21 4 -5 0 -7 6 -4
11 3 6 -3 10 -15 10 -12 0 -18 5 -15 10 3 6 -4 10 -17 10 -19 0 -20 2 -8 11
12 9 11 10 -7 6 -16 -4 -20 -1 -16 11 5 12 1 14 -15 10 -19 -5 -20 -3 -12 12
11 21 -4 38 -16 19 -5 -8 -3 -9 6 -4 9 5 11 4 6 -4 -5 -8 -18 -3 -41 16 -18
15 -34 32 -34 37 -1 5 9 0 22 -12 13 -12 27 -22 31 -22 4 0 -6 11 -21 24 -20
17 -32 21 -40 14 -9 -7 -11 -4 -8 11 2 11 -1 24 -7 27 -7 4 -8 2 -4 -4 4 -7 2
-12 -3 -12 -6 0 -11 5 -11 11 0 5 -6 7 -12 3 -9 -5 -9 -2 1 9 12 15 11 17 -9
17 -18 0 -21 4 -17 21 4 16 3 19 -5 11 -13 -13 -49 23 -79 81 -11 20 -24 37
-30 37 -6 0 -8 7 -5 16 6 15 4 15 -11 3 -9 -8 -14 -9 -10 -2 4 7 -6 25 -25 43
-30 29 -31 30 -5 15 15 -10 27 -15 27 -12 0 3 -15 15 -34 26 -32 20 -61 60
-33 46 6 -4 4 0 -5 8 -10 8 -15 17 -11 20 3 4 1 7 -6 7 -7 0 -9 5 -6 10 3 6 0
10 -8 10 -8 0 -21 8 -28 18 -13 15 -12 16 4 3 15 -12 17 -12 11 3 -3 9 -10 16
-15 16 -5 0 -9 7 -9 16 0 9 -5 12 -12 8 -8 -5 -7 0 2 11 14 17 13 18 -3 12
-11 -4 -16 -3 -12 3 3 6 1 10 -6 10 -6 0 -9 8 -6 20 3 11 1 20 -4 20 -5 0 -8
6 -7 13 2 6 -3 11 -10 9 -6 -1 -11 1 -10 5 4 20 -15 62 -26 56 -6 -4 -4 2 4
12 9 11 10 16 3 11 -9 -5 -13 -1 -13 10 0 9 -8 23 -17 31 -17 14 -17 14 1 8
19 -6 19 -5 3 13 -10 11 -17 23 -16 28 3 17 -13 54 -23 54 -6 0 -8 9 -5 20 3
11 1 18 -4 14 -8 -4 -14 25 -10 49 0 4 -6 7 -15 7 -8 0 -12 5 -9 10 4 6 10 8
14 6 4 -3 8 1 8 9 0 8 -3 14 -6 13 -19 -2 -22 4 -10 18 11 14 10 19 -9 34 -21
17 -31 37 -14 26 5 -3 9 1 9 9 0 8 -7 15 -16 15 -14 0 -14 2 -1 10 8 5 10 10
3 10 -6 0 -9 9 -6 20 3 13 0 20 -8 20 -11 0 -11 2 1 10 12 8 12 10 1 10 -11 0
-11 3 0 17 8 9 9 14 3 10 -7 -4 -15 0 -18 9 -5 12 -2 15 9 10 9 -3 13 -2 10 4
-3 6 -13 10 -22 10 -13 0 -13 3 -3 15 7 8 8 15 3 15 -12 0 -11 30 2 49 6 11 4
13 -8 8 -11 -4 -14 -2 -11 8 3 7 1 23 -5 34 -10 18 -9 20 6 14 10 -3 15 -3 11
2 -4 4 -2 15 5 24 10 14 10 14 -4 4 -20 -16 -33 -5 -16 15 9 12 9 14 0 9 -8
-5 -11 -1 -8 14 3 13 -1 29 -8 38 -9 11 -9 13 0 8 6 -4 14 -3 18 3 3 5 1 10
-6 10 -8 0 -7 5 2 17 8 9 9 14 3 10 -7 -4 -14 2 -17 13 -3 11 -2 18 3 15 4 -3
10 2 14 10 3 8 0 17 -6 21 -7 4 -8 3 -4 -4 4 -7 2 -12 -4 -12 -7 0 -10 6 -7
14 3 7 0 19 -6 26 -9 10 -9 11 0 6 16 -9 15 42 -1 63 -9 12 -8 13 3 6 11 -6
13 -1 9 23 -4 27 -2 30 10 19 13 -10 14 -9 4 10 -14 26 -9 69 8 65 6 -1 9 2 5
8 -3 6 -10 8 -15 5 -5 -3 -12 0 -16 6 -4 7 -3 9 4 5 6 -3 13 -2 17 4 3 5 1 10
-4 10 -6 0 -11 5 -11 11 0 5 5 7 10 4 6 -3 10 -1 10 4 0 6 -5 11 -11 11 -5 0
-7 5 -4 10 4 6 10 8 14 5 5 -2 5 13 1 35 -5 30 -4 38 4 31 8 -7 12 -4 12 9 0
10 -4 16 -9 13 -12 -7 -4 30 8 39 7 5 6 14 -2 27 -11 17 -10 19 1 15 18 -7 30
12 15 22 -8 5 -9 3 -4 -7 5 -8 4 -10 0 -6 -16 14 -14 36 2 30 11 -4 14 -2 11
8 -3 8 -1 23 5 34 9 18 9 19 -6 6 -22 -18 -22 -7 0 15 10 9 18 22 19 29 1 7 5
23 8 36 7 23 7 23 -8 5 -9 -11 -16 -15 -16 -10 0 6 5 15 12 22 7 7 8 12 4 12
-5 0 -3 7 4 15 7 8 17 12 24 8 8 -4 8 -3 0 6 -13 14 -6 64 7 55 5 -3 9 0 9 5
0 6 -5 11 -12 11 -6 0 -3 7 8 16 10 8 13 13 7 9 -9 -4 -11 -1 -7 9 3 9 10 13
15 10 5 -3 9 -1 9 5 0 5 -5 11 -11 13 -7 2 -4 10 7 18 16 13 17 13 9 0 -6 -12
-6 -13 6 -2 12 11 12 14 -1 22 -14 9 -7 14 13 11 4 -1 3 8 -3 19 -9 17 -8 19
7 13 16 -6 17 -5 3 12 -14 17 -13 18 4 12 15 -6 17 -5 7 7 -9 11 -8 14 5 12
12 -1 17 7 18 26 1 16 -3 24 -9 20 -5 -3 -4 2 4 11 7 9 18 14 25 10 6 -4 5 1
-3 10 -11 14 -11 18 4 23 10 4 15 14 12 26 -4 14 -2 17 7 9 9 -7 12 -4 13 12
1 12 7 23 14 26 8 2 7 6 -2 13 -10 7 -8 8 9 5 19 -5 21 -3 11 9 -9 11 -9 14 1
14 7 0 10 8 7 19 -3 15 -1 18 11 14 11 -5 13 -3 7 7 -6 9 -4 12 7 8 17 -7 21
23 4 35 -6 5 -1 6 11 2 18 -5 21 -3 18 14 -2 12 1 20 8 18 7 -1 12 8 11 20 0
19 2 21 15 10 12 -10 14 -9 8 6 -3 9 -2 17 3 17 5 0 7 8 3 18 -5 15 -4 15 8 2
8 -8 13 -13 12 -11 -2 2 3 11 10 19 8 11 8 14 0 9 -6 -4 -14 -3 -17 2 -4 5 5
8 19 6 18 -1 22 1 16 9 -6 7 -2 19 10 35 10 13 19 19 19 14 0 -5 -5 -14 -12
-21 -9 -9 -9 -12 -1 -12 14 0 27 36 18 50 -3 6 0 7 9 4 10 -4 20 3 27 20 7 14
16 26 21 26 5 0 6 -5 2 -12 -4 -7 -3 -8 5 -4 6 4 8 12 5 18 -5 7 -2 9 7 6 11
-4 15 1 15 20 -1 19 5 28 24 33 14 4 19 7 12 8 -7 1 -11 5 -7 11 3 5 13 6 22
3 12 -5 14 -3 8 7 -6 10 -4 12 10 6 16 -6 16 -4 4 11 -12 15 -12 16 4 10 11
-4 17 -2 17 8 0 8 3 15 8 15 4 0 30 22 58 48 28 26 58 46 66 44 9 -2 27 7 40
20 13 13 17 18 8 12 -33 -24 -43 -25 -15 -1 16 14 33 23 37 20 5 -2 8 1 8 6 0
6 5 11 11 11 5 0 7 -6 4 -12 -4 -7 0 -5 8 4 8 10 17 14 21 10 4 -4 6 0 4 8 -2
10 4 15 19 14 13 -1 20 2 18 6 -3 4 5 10 16 13 14 4 18 10 13 19 -6 11 -5 11
8 0 13 -10 19 -8 40 13 17 17 31 23 43 18 12 -4 16 -3 11 5 -8 13 11 26 44 28
14 1 27 3 30 4 3 1 8 2 12 1 4 0 5 6 1 15 -4 11 0 14 21 10 14 -2 29 0 32 6 4
6 2 8 -4 4 -6 -3 -14 -1 -18 6 -4 7 -4 10 1 6 4 -4 15 -2 23 5 11 8 14 8 9 0
-4 -6 -3 -14 3 -18 5 -3 10 1 10 10 0 9 4 14 9 11 5 -4 11 -1 13 6 2 6 11 12
20 14 11 1 15 -3 11 -14 -3 -10 2 -7 12 6 11 16 23 21 36 17 12 -4 19 -2 19 6
0 7 8 5 22 -7 22 -19 22 -19 8 0 -14 18 -13 19 4 13 17 -7 17 -6 5 10 -13 17
-13 17 13 0 26 -16 27 -16 21 0 -5 14 -3 15 7 6 13 -12 43 -7 35 6 -2 4 1 8 8
8 7 0 24 3 40 6 17 4 25 2 21 -5 -4 -6 2 -6 15 2 12 6 19 15 16 20 -3 6 1 7
10 3 13 -4 14 -7 3 -14 -9 -6 -6 -8 9 -6 12 0 19 5 17 9 -3 4 12 7 33 6 21 -1
39 4 41 11 3 8 9 6 19 -6 8 -10 12 -13 9 -7 -3 7 2 18 11 25 9 8 14 9 11 4 -4
-6 -3 -17 3 -25 7 -13 9 -12 9 3 0 11 8 17 24 17 14 0 28 5 31 10 3 6 8 10 11
10 3 0 2 -5 -1 -10z m665 -70 c0 -5 -4 -10 -10 -10 -5 0 -10 5 -10 10 0 6 5
10 10 10 6 0 10 -4 10 -10z m-1330 -96 c0 -8 -19 -13 -24 -6 -3 5 1 9 9 9 8 0
15 -2 15 -3z m-144 -72 c-17 -16 -18 -16 -5 5 7 12 15 20 18 17 3 -2 -3 -12
-13 -22z m-832 -908 c3 -8 2 -12 -4 -9 -6 3 -10 10 -10 16 0 14 7 11 14 -7z
m-127 -369 c0 -8 -4 -12 -9 -9 -5 3 -6 10 -3 15 9 13 12 11 12 -6z m4163 -809
c0 -2 -8 -10 -17 -17 -16 -13 -17 -12 -4 4 13 16 21 21 21 13z m-26 -237 c-8
-14 -21 -11 -21 5 0 8 6 12 14 9 7 -3 10 -9 7 -14z m-4114 -121 c0 -6 -6 -5
-15 2 -8 7 -15 14 -15 16 0 2 7 1 15 -2 8 -4 15 -11 15 -16z m3774 -6 c3 -5
-1 -9 -9 -9 -8 0 -12 4 -9 9 3 4 7 8 9 8 2 0 6 -4 9 -8z m-249 -572 c3 -5 -1
-10 -10 -10 -9 0 -13 5 -10 10 3 6 8 10 10 10 2 0 7 -4 10 -10z m-3155 -180
c0 -5 -2 -10 -4 -10 -3 0 -8 5 -11 10 -3 6 -1 10 4 10 6 0 11 -4 11 -10z
m3330 -94 c0 -2 -7 -9 -15 -16 -13 -11 -14 -10 -9 4 5 14 24 23 24 12z m-86
-108 c-3 -4 -9 -8 -15 -8 -5 0 -9 4 -9 8 0 5 7 9 15 9 8 0 12 -4 9 -9z m-984
-354 c0 -8 -19 -13 -24 -6 -3 5 1 9 9 9 8 0 15 -2 15 -3z m-1985 -66 c5 4 5 1
1 -6 -6 -10 -11 -10 -22 -1 -8 6 -14 14 -14 16 0 3 6 0 13 -6 8 -6 18 -7 22
-3z m2455 -18 c-8 -5 -19 -10 -25 -10 -5 0 -3 5 5 10 8 5 20 10 25 10 6 0 3
-5 -5 -10z m756 -857 c0 -13 -5 -22 -11 -19 -7 2 -12 -2 -12 -10 0 -7 3 -11 7
-9 3 2 12 0 20 -6 13 -7 12 -9 -2 -9 -10 0 -18 -4 -18 -10 0 -5 8 -14 18 -19
15 -9 14 -11 -8 -12 -18 -1 -20 -3 -7 -6 18 -5 18 -5 0 -20 -10 -8 -13 -12 -6
-9 6 4 14 2 18 -4 3 -5 0 -10 -7 -10 -8 -1 -6 -6 6 -15 19 -15 19 -15 -5 -16
-18 -1 -19 -3 -6 -6 18 -5 18 -5 0 -20 -10 -8 -13 -12 -6 -9 6 4 14 2 18 -4 3
-5 1 -10 -5 -10 -7 0 -8 -6 -1 -19 6 -10 8 -21 4 -24 -3 -4 0 -13 6 -21 8 -9
8 -16 2 -20 -12 -8 -11 -46 1 -63 11 -14 -7 -27 -24 -17 -7 4 -4 -2 6 -14 12
-14 14 -22 7 -22 -7 0 -9 -5 -5 -11 9 -15 13 -69 5 -69 -4 0 -7 -9 -7 -19 0
-11 4 -17 8 -15 4 3 8 0 8 -5 0 -6 -8 -11 -17 -11 -15 0 -14 -2 3 -15 19 -14
19 -14 -1 -15 -18 -1 -17 -2 5 -15 22 -13 23 -14 5 -15 -17 0 -17 -2 -5 -10
12 -8 12 -10 1 -10 -11 0 -11 -3 -1 -15 10 -12 9 -15 -6 -15 -16 -1 -15 -3 6
-15 22 -13 23 -14 5 -15 -17 0 -17 -2 -5 -10 12 -8 12 -10 1 -10 -11 0 -11 -3
-1 -15 10 -12 9 -15 -6 -15 -16 -1 -15 -3 6 -15 22 -13 23 -14 5 -15 -17 0
-17 -2 -5 -10 12 -8 12 -10 1 -10 -11 0 -11 -3 -1 -15 10 -12 9 -15 -6 -15
-16 -1 -15 -3 6 -15 22 -13 23 -14 5 -15 -17 0 -17 -2 -5 -10 12 -8 12 -10 1
-10 -11 0 -11 -3 -1 -15 9 -11 9 -15 1 -15 -7 0 -9 -5 -5 -11 11 -18 13 -69 2
-69 -5 0 -6 -4 -3 -10 3 -5 1 -20 -5 -32 -11 -22 -10 -22 4 -4 14 18 15 17 11
-15 -2 -19 1 -37 8 -41 8 -5 5 -8 -8 -8 -17 0 -17 -2 -5 -10 12 -8 12 -10 1
-10 -11 0 -11 -3 -1 -15 10 -12 9 -15 -6 -15 -16 -1 -15 -3 6 -15 17 -10 20
-14 9 -15 -22 0 -31 -24 -16 -40 9 -10 9 -11 0 -6 -7 4 -13 2 -13 -3 0 -6 -5
-11 -11 -11 -5 0 -7 5 -4 10 3 6 -1 10 -9 10 -9 0 -16 -5 -16 -12 0 -6 -7 -3
-15 8 -13 16 -14 16 -9 2 3 -10 1 -18 -5 -18 -6 0 -11 5 -11 12 0 9 -3 9 -12
0 -15 -15 -28 -15 -28 -1 0 5 5 7 12 3 7 -5 8 -3 3 5 -5 9 -11 9 -17 3 -6 -6
-17 -8 -26 -5 -8 4 -13 2 -9 -3 9 -16 -57 -11 -69 5 -9 11 -12 12 -19 1 -6 -9
-4 -11 6 -5 12 7 12 5 1 -6 -11 -12 -14 -12 -23 1 -8 12 -12 12 -16 2 -4 -10
-9 -9 -19 5 -13 17 -14 17 -8 1 3 -10 1 -18 -5 -18 -6 0 -11 5 -11 11 0 8 -6
7 -17 -2 -9 -8 -14 -9 -10 -3 4 7 0 14 -7 17 -10 4 -13 0 -11 -14 3 -17 2 -19
-10 -9 -8 6 -20 8 -26 4 -8 -4 -9 -3 -5 4 4 7 3 12 -2 12 -6 0 -13 -8 -16 -17
-6 -15 -9 -15 -16 -3 -5 8 -6 19 -4 25 3 5 -5 -1 -17 -15 -13 -15 -20 -18 -16
-8 5 14 1 15 -23 8 -18 -5 -32 -4 -40 3 -10 9 -11 9 -6 0 4 -7 2 -13 -3 -13
-6 0 -11 5 -11 11 0 8 -4 8 -15 -1 -20 -16 -40 -3 -24 16 9 12 9 13 -2 9 -10
-4 -15 1 -15 14 0 16 3 18 16 8 8 -6 12 -7 8 -3 -4 5 -3 15 3 22 6 8 8 21 5
30 -6 15 -4 15 11 3 10 -7 15 -9 11 -5 -4 5 -3 15 4 23 9 11 7 12 -8 7 -18 -6
-17 -5 1 9 11 9 16 17 11 17 -5 0 1 9 14 20 21 19 20 24 -5 21 -5 -1 0 7 12
18 12 10 19 22 15 27 -4 5 2 2 12 -6 14 -11 18 -11 12 -2 -10 16 12 73 35 89
10 8 16 23 14 38 -1 14 2 28 8 32 6 4 7 1 2 -7 -5 -9 -4 -11 4 -6 9 6 9 11 1
21 -7 9 -6 16 5 25 8 7 13 16 10 20 -3 5 7 18 22 30 16 12 23 19 17 16 -6 -3
-11 1 -11 8 0 9 7 12 16 8 14 -5 14 -4 1 13 -14 17 -13 18 4 12 13 -5 17 -3
13 6 -3 7 4 19 15 26 11 7 17 15 14 18 -3 4 -1 12 6 20 9 11 7 12 -8 7 -18 -5
-18 -5 -1 6 9 6 14 16 11 22 -5 7 -1 9 9 5 12 -4 14 -2 10 10 -4 11 -2 14 5 9
7 -4 12 -3 12 3 0 5 -6 12 -12 14 -8 3 -6 6 5 6 9 1 17 6 17 12 0 5 -4 8 -8 5
-5 -3 -9 1 -9 9 0 11 5 11 19 4 17 -9 18 -8 9 9 -8 16 -7 21 4 26 8 3 15 13
15 23 0 10 9 24 19 30 13 8 18 21 17 38 -2 14 1 28 6 31 4 3 6 10 3 15 -3 5 1
6 10 3 11 -5 14 -2 8 12 -4 12 -3 15 5 10 7 -4 12 -2 12 4 0 6 5 8 12 4 6 -4
8 -3 4 4 -3 6 -2 13 2 16 5 3 8 18 6 33 -2 16 -1 22 2 15 5 -10 10 -7 19 10 8
15 8 27 2 36 -7 9 -6 11 7 6 12 -4 15 -2 10 9 -3 8 0 18 5 22 6 3 9 11 6 16
-4 5 1 12 9 15 9 3 13 10 10 15 -3 5 -1 9 5 9 5 0 8 9 6 19 -3 15 1 18 12 14
12 -5 14 -1 8 15 -4 13 -2 22 4 22 6 0 11 -5 11 -12 0 -6 3 -9 6 -6 3 4 0 16
-6 28 -8 15 -8 20 -1 16 6 -4 11 -3 11 3 0 6 8 7 18 4 14 -6 15 -4 5 8 -10 13
-10 16 0 16 7 0 13 -11 13 -24z m-518 -293 c-7 -11 -16 -20 -20 -20 -5 0 -3 9
4 20 7 11 16 20 20 20 5 0 3 -9 -4 -20z m352 14 c0 -8 -19 -13 -24 -6 -3 5 1
9 9 9 8 0 15 -2 15 -3z m-75 -123 c3 -5 2 -12 -3 -15 -5 -3 -9 1 -9 9 0 17 3
19 12 6z m-120 -240 c3 -5 2 -12 -3 -15 -5 -3 -9 1 -9 9 0 17 3 19 12 6z
m-115 -245 c0 -3 -4 -8 -10 -11 -5 -3 -10 -1 -10 4 0 6 5 11 10 11 6 0 10 -2
10 -4z m-1632 -326 c-7 -10 -14 -18 -15 -16 -6 6 9 36 18 36 5 0 4 -9 -3 -20z
m2122 10 c0 -5 -7 -7 -15 -4 -8 4 -15 8 -15 10 0 2 7 4 15 4 8 0 15 -4 15 -10z
m-3517 -326 c28 -1 34 2 30 15 -3 12 -2 12 7 -2 9 -14 15 -16 26 -6 8 6 14 7
14 2 0 -5 7 -10 15 -10 10 0 14 6 10 16 -4 13 -2 12 9 -1 13 -17 32 -26 23
-10 -3 4 6 8 19 8 16 1 24 -4 25 -15 0 -12 2 -12 9 4 5 11 9 14 9 6 1 -10 4
-11 14 -2 8 6 17 8 21 4 10 -11 37 -12 30 -2 -3 5 0 9 5 9 6 0 11 -4 11 -9 0
-6 9 -9 20 -8 12 1 18 7 16 14 -3 7 1 10 10 6 7 -3 14 -10 14 -17 0 -6 5 -4
10 4 8 12 10 12 10 -5 0 -17 2 -17 10 -5 5 8 17 15 27 15 10 0 24 4 31 8 7 5
12 5 11 0 -5 -28 2 -36 16 -17 10 13 14 14 15 5 0 -11 3 -11 15 -1 12 10 15
10 16 -1 0 -11 2 -11 6 -1 4 10 9 9 19 -5 10 -13 13 -14 12 -3 -2 8 5 14 17
15 11 0 26 4 33 8 7 5 12 5 11 0 -5 -28 2 -36 16 -17 9 11 14 14 15 6 0 -9 5
-10 17 -3 10 5 26 5 41 0 16 -6 29 -6 38 2 11 9 14 7 14 -7 0 -16 2 -17 10 -4
11 17 26 19 58 8 15 -5 21 -4 17 2 -3 6 -1 10 4 10 6 0 11 -4 11 -9 0 -5 13
-8 29 -7 21 0 27 5 23 16 -4 12 -2 12 9 -1 8 -9 23 -19 34 -23 18 -6 19 -5 3
7 -16 12 -14 14 12 14 20 0 30 -5 31 -16 0 -12 3 -11 9 4 5 12 9 15 9 6 1 -11
4 -12 12 -4 8 8 20 8 36 2 16 -6 22 -5 18 1 -3 6 -1 10 4 10 6 0 11 -4 11 -9
0 -5 13 -8 29 -7 21 0 27 5 23 16 -3 9 1 8 10 -4 9 -12 17 -15 21 -8 4 5 17 8
29 4 16 -4 19 -2 13 8 -5 9 -4 11 3 6 7 -4 12 -15 13 -24 0 -14 2 -13 9 3 5
11 9 14 9 6 1 -10 4 -11 14 -2 8 6 17 7 21 3 11 -10 30 -9 38 3 4 5 8 1 8 -10
0 -16 2 -17 9 -6 5 8 23 15 40 16 16 1 28 -2 25 -7 -3 -4 1 -8 8 -8 9 0 9 -3
-2 -10 -13 -8 -13 -10 -1 -10 11 0 11 -3 -3 -13 -16 -12 -15 -14 6 -37 18 -20
19 -23 4 -17 -19 7 -19 8 2 -42 4 -10 1 -12 -9 -6 -12 8 -12 6 0 -8 12 -15 11
-17 -3 -17 -9 0 -16 -4 -16 -10 0 -5 3 -9 8 -9 19 3 25 -2 12 -11 -11 -7 -11
-10 -2 -10 9 0 10 -5 2 -19 -8 -16 -6 -22 7 -30 17 -10 17 -10 -1 -11 -13 0
-16 -3 -9 -12 15 -18 12 -48 -4 -48 -7 0 -13 -5 -13 -11 0 -5 4 -8 9 -4 5 3
12 1 16 -5 3 -5 0 -10 -7 -10 -10 0 -10 -2 -1 -8 8 -5 9 -13 3 -22 -6 -10 -4
-21 7 -33 16 -17 16 -17 -3 -11 -17 7 -17 6 -5 -9 12 -15 12 -17 -3 -11 -14 5
-15 3 -2 -21 10 -20 12 -35 5 -52 -11 -30 -11 -36 -1 -29 5 3 9 -1 9 -9 0 -8
-4 -12 -9 -9 -4 3 -8 0 -8 -5 0 -6 8 -12 18 -12 13 -1 13 -2 2 -5 -20 -6 -18
-122 2 -136 9 -7 8 -8 -6 -4 -13 5 -17 2 -12 -9 3 -8 9 -22 13 -32 5 -12 3
-14 -8 -8 -12 8 -12 6 0 -8 12 -15 11 -17 -3 -17 -9 0 -16 -5 -16 -11 0 -5 5
-7 10 -4 10 6 11 5 15 -33 2 -19 0 -20 -13 -10 -13 11 -14 10 -4 -9 7 -12 17
-24 24 -26 8 -3 5 -6 -6 -6 -15 -1 -16 -4 -6 -16 11 -13 10 -14 -6 -8 -16 6
-17 4 -7 -8 7 -9 14 -24 16 -35 1 -10 6 -25 11 -32 4 -8 3 -11 -5 -10 -6 2
-14 -3 -17 -11 -2 -8 0 -11 5 -8 5 3 10 0 10 -8 0 -8 -4 -12 -9 -9 -4 3 -8 0
-8 -5 0 -6 8 -12 18 -12 13 -1 13 -2 2 -5 -20 -6 -18 -122 2 -136 10 -7 9 -8
-4 -4 -21 6 -22 2 -8 -25 7 -13 7 -19 1 -19 -7 0 -7 -9 -1 -25 5 -14 7 -25 4
-25 -4 0 0 -8 7 -17 8 -10 9 -14 2 -10 -6 4 -14 3 -18 -3 -3 -5 0 -10 7 -11 7
0 4 -4 -7 -9 -17 -7 -17 -9 -2 -9 9 -1 17 -6 17 -12 0 -5 -6 -7 -12 -3 -9 5
-9 2 1 -9 12 -15 11 -17 -5 -17 -17 0 -17 -1 2 -16 10 -8 14 -13 7 -10 -6 4
-14 2 -17 -3 -4 -5 1 -11 10 -13 15 -3 15 -4 -1 -18 -14 -11 -17 -11 -11 -1 7
10 3 12 -13 6 -13 -4 -21 -2 -21 5 0 6 6 8 13 5 6 -4 -1 5 -16 19 -16 15 -34
23 -40 19 -7 -4 -6 1 2 10 12 15 11 17 -8 17 -11 0 -21 5 -21 11 0 5 -6 7 -12
3 -9 -5 -9 -2 1 9 12 15 11 17 -9 17 -18 0 -21 4 -17 21 4 16 3 18 -9 8 -11
-9 -14 -9 -14 0 0 7 -5 9 -12 5 -8 -5 -8 -2 1 10 8 9 10 16 5 15 -26 -5 -36 1
-25 15 10 12 8 14 -11 9 -18 -4 -20 -3 -8 6 12 9 11 11 -9 11 -19 0 -22 4 -18
21 4 16 3 18 -9 8 -11 -9 -14 -7 -14 11 0 20 -2 21 -17 9 -11 -10 -14 -10 -9
-1 4 6 2 12 -3 12 -6 0 -11 10 -11 21 0 19 -2 20 -17 8 -11 -10 -14 -10 -9 -1
4 7 2 12 -4 12 -7 0 -10 7 -7 15 4 8 1 17 -5 21 -7 4 -8 3 -4 -4 4 -7 3 -12
-2 -12 -6 0 -13 7 -16 16 -3 9 -11 12 -18 8 -10 -6 -10 -4 0 8 10 13 10 18 1
24 -8 4 -9 3 -5 -4 4 -7 2 -12 -3 -12 -6 0 -11 7 -11 16 0 8 -4 12 -10 9 -5
-3 -10 4 -10 16 0 19 -2 20 -17 8 -11 -10 -14 -10 -9 -1 4 6 2 12 -3 12 -6 0
-11 10 -11 21 0 19 -2 20 -17 8 -11 -10 -14 -10 -9 -1 4 6 2 12 -3 12 -6 0
-11 7 -11 15 0 8 -5 15 -11 15 -5 0 -7 4 -4 10 4 6 -1 7 -11 3 -13 -5 -16 -3
-11 10 3 9 1 19 -5 23 -7 4 -8 3 -4 -4 4 -7 2 -12 -3 -12 -6 0 -11 7 -11 16 0
8 -4 12 -10 9 -5 -3 -10 -1 -10 5 0 6 -5 8 -12 4 -9 -5 -9 -2 1 9 12 15 11 17
-8 17 -12 0 -21 6 -21 16 0 9 5 12 12 8 7 -5 8 -3 3 5 -5 9 -11 9 -17 3 -15
-15 -59 29 -46 45 7 8 3 10 -11 6 -13 -3 -21 -1 -21 6 0 7 -5 9 -12 5 -9 -5
-9 -2 1 9 12 15 11 17 -8 17 -11 0 -21 5 -21 11 0 5 -6 7 -12 3 -9 -5 -9 -2 1
9 12 15 11 17 -9 17 -18 0 -21 4 -17 21 4 16 3 18 -9 8 -11 -9 -14 -9 -14 0 0
7 -5 9 -12 5 -8 -5 -7 0 2 11 8 10 10 16 5 13 -6 -4 -17 -2 -25 3 -13 8 -13
10 0 19 12 7 8 11 -18 16 -27 5 -33 11 -29 26 5 16 3 17 -9 7 -11 -9 -14 -7
-14 11 0 20 -2 21 -17 9 -11 -10 -14 -10 -9 -1 4 6 2 12 -3 12 -6 0 -11 10
-11 21 0 19 -2 20 -17 8 -11 -10 -14 -10 -9 -1 4 7 2 12 -4 12 -7 0 -10 7 -7
15 4 8 1 17 -5 21 -7 4 -8 3 -4 -4 4 -7 3 -12 -2 -12 -6 0 -13 7 -16 16 -3 9
-11 12 -18 8 -10 -6 -10 -4 0 8 10 13 10 18 1 24 -8 4 -9 3 -5 -4 4 -7 2 -12
-3 -12 -6 0 -11 7 -11 16 0 8 -4 12 -10 9 -5 -3 -10 -1 -10 5 0 6 -5 8 -12 4
-9 -5 -9 -2 1 9 12 15 11 17 -8 17 -12 0 -21 6 -21 16 0 9 5 12 12 8 7 -4 8
-3 4 5 -5 8 -12 9 -20 2 -9 -7 -16 -5 -26 9 -7 10 -17 17 -22 14 -4 -3 -5 2
-2 10 4 11 0 16 -10 16 -9 0 -16 5 -16 11 0 5 -6 7 -12 3 -9 -5 -9 -2 1 9 12
15 11 17 -8 17 -15 0 -21 6 -21 21 0 19 -2 20 -17 8 -11 -10 -14 -10 -9 -1 4
6 2 12 -3 12 -6 0 -11 10 -11 21 0 19 -2 20 -17 8 -11 -10 -14 -10 -9 -1 4 6
2 12 -3 12 -6 0 -11 7 -11 15 0 8 5 15 12 15 6 0 8 3 5 6 -4 4 -13 1 -22 -6
-15 -12 -21 -3 -16 24 1 5 -6 3 -15 -5 -16 -13 -16 -12 -4 11 9 19 9 22 0 13
-17 -16 -62 26 -47 45 7 9 6 11 -7 6 -18 -7 -59 23 -50 37 3 5 0 9 -5 9 -6 0
-3 8 7 18 10 11 20 14 24 8 3 -5 22 -11 41 -12z m1983 7 c8 6 14 7 14 2 0 -5
7 -10 15 -10 10 0 14 6 10 16 -4 13 -2 12 9 -1 13 -17 32 -26 23 -10 -3 4 6 8
19 8 16 1 24 -4 25 -15 0 -12 2 -12 9 4 5 12 9 15 9 5 1 -10 4 -11 12 -3 8 8
20 8 36 2 16 -6 22 -5 18 1 -3 6 -1 10 4 10 6 0 11 -4 11 -10 0 -11 28 -9 48
3 7 5 12 4 12 -2 0 -6 5 -11 11 -11 5 0 7 5 3 12 -4 7 -3 8 5 4 6 -4 18 -2 26
4 12 10 13 8 10 -10 -4 -22 -4 -22 17 -4 21 19 21 19 11 -1 -6 -11 -8 -25 -6
-32 2 -7 -5 -18 -16 -25 -22 -14 -30 -34 -8 -23 6 4 1 -3 -13 -15 -14 -12 -19
-19 -12 -15 16 8 15 -5 -2 -27 -7 -10 -17 -14 -21 -10 -5 4 -5 -1 -2 -10 4
-11 1 -18 -7 -18 -7 0 -13 -7 -13 -15 0 -8 5 -15 11 -15 6 0 4 -4 -4 -9 -8 -6
-17 -8 -21 -5 -5 2 -6 -5 -4 -16 2 -11 -1 -20 -7 -20 -6 0 -8 -3 -4 -7 3 -4
-4 -13 -16 -21 -16 -9 -17 -12 -4 -7 15 4 17 3 8 -8 -7 -8 -8 -18 -4 -22 4 -5
-1 -5 -11 -2 -11 4 -16 3 -12 -3 3 -6 -2 -11 -12 -11 -17 -1 -17 -2 0 -6 21
-5 22 -22 2 -29 -8 -4 -13 -9 -10 -14 2 -4 -3 -16 -11 -26 -9 -10 -12 -13 -8
-5 4 9 3 12 -4 8 -5 -4 -9 -15 -8 -25 2 -9 -4 -23 -13 -30 -9 -8 -10 -10 -2
-6 9 4 12 2 9 -7 -3 -8 -11 -14 -19 -14 -8 0 -13 -8 -11 -19 2 -13 -1 -16 -10
-10 -10 6 -9 3 1 -10 11 -13 11 -16 1 -14 -7 2 -15 -3 -18 -11 -3 -8 0 -11 7
-7 7 5 9 1 5 -9 -5 -13 -9 -13 -22 -3 -14 12 -14 10 -3 -11 8 -15 9 -21 2 -17
-6 4 -11 0 -11 -8 0 -9 -4 -16 -10 -16 -5 0 -10 -5 -10 -11 0 -5 5 -7 12 -3 7
5 8 3 4 -5 -5 -7 -14 -10 -22 -7 -19 7 -18 -4 4 -21 9 -8 13 -12 7 -10 -5 2
-26 -11 -45 -30 -19 -19 -28 -33 -20 -31 8 2 18 8 22 13 5 6 8 6 8 -2 0 -7 -8
-17 -17 -22 -10 -6 -14 -11 -9 -11 6 0 1 -7 -10 -16 -10 -8 -13 -12 -5 -8 9 4
12 2 9 -7 -3 -8 -11 -14 -19 -14 -8 0 -13 -8 -11 -19 2 -13 -1 -16 -10 -10
-10 6 -9 3 1 -10 11 -13 11 -16 1 -14 -7 2 -15 -3 -18 -11 -3 -8 0 -11 7 -7 7
5 9 1 5 -9 -5 -13 -9 -13 -22 -3 -14 12 -14 10 -3 -11 8 -15 9 -21 2 -17 -6 4
-11 2 -11 -4 0 -6 -4 -9 -8 -6 -5 3 -9 -1 -9 -9 0 -8 5 -11 10 -8 5 3 7 0 5
-8 -3 -8 -11 -13 -18 -11 -10 2 -10 -1 1 -14 9 -12 9 -15 2 -10 -8 4 -13 2
-13 -4 0 -6 -5 -8 -12 -4 -8 5 -7 0 2 -11 13 -17 13 -18 -1 -13 -9 4 -16 0
-17 -8 -1 -8 -3 -21 -4 -29 -1 -8 -6 -15 -11 -15 -5 0 -7 -9 -4 -21 4 -16 3
-18 -8 -9 -11 9 -13 6 -11 -14 2 -14 -2 -24 -8 -23 -6 1 -10 -4 -9 -10 2 -7
-5 -13 -15 -13 -15 -1 -15 -2 3 -16 14 -11 15 -15 5 -14 -28 4 -41 0 -35 -10
4 -6 12 -7 18 -3 7 4 6 -1 -2 -10 -19 -24 -45 -4 -31 24 8 14 6 21 -7 29 -17
11 -17 11 0 6 20 -6 20 -5 7 28 -6 16 -6 27 0 31 6 4 10 11 10 16 0 6 -4 8 -9
4 -5 -3 -13 0 -17 6 -4 7 -3 9 3 6 6 -4 13 0 17 8 3 8 0 15 -6 15 -7 0 -7 4 1
14 10 11 8 17 -6 26 -16 10 -16 11 0 6 19 -6 20 -1 8 29 -5 11 -4 28 1 38 6
12 5 17 -4 17 -8 1 -6 6 5 14 10 8 14 16 9 17 -6 2 -12 21 -15 42 -4 32 -2 37
11 32 12 -4 12 -1 -4 16 -12 15 -14 20 -4 15 8 -4 6 0 -5 10 -17 14 -17 16 -2
11 19 -7 20 -2 7 28 -5 13 -3 26 7 37 14 16 14 17 -7 13 -18 -3 -20 -2 -10 10
6 8 8 20 4 26 -4 8 -3 9 4 5 7 -4 12 -2 12 3 0 6 -5 11 -11 11 -6 0 -7 5 -2
13 12 19 14 47 3 47 -6 0 -10 5 -10 11 0 5 6 7 13 3 6 -4 3 3 -8 16 l-20 23
25 -13 c19 -10 22 -10 13 0 -6 7 -9 19 -6 28 4 10 2 13 -5 8 -11 -7 -9 24 3
44 3 6 0 10 -7 10 -8 1 -6 6 6 15 19 14 11 21 -18 16 -5 -1 -4 4 3 12 6 8 10
27 7 42 -4 22 -2 26 11 20 14 -5 13 -2 -3 16 -12 15 -14 20 -4 15 8 -4 6 0 -5
10 -17 14 -17 16 -2 11 9 -4 17 -2 17 3 0 6 -5 10 -12 10 -6 0 -3 10 8 22 10
12 14 18 8 15 -7 -4 -17 0 -24 8 -11 13 -10 14 3 10 8 -4 18 -1 22 5 3 6 1 9
-6 8 -6 -2 -12 7 -14 19 -1 12 2 20 7 17 4 -3 8 0 8 5 0 6 -5 11 -11 11 -6 0
-7 5 -2 13 12 19 14 47 3 47 -6 0 -10 5 -10 11 0 5 6 7 13 3 7 -5 6 0 -3 11
-14 17 -13 18 4 12 15 -6 17 -5 7 6 -9 11 -8 17 2 26 8 6 18 7 22 3 5 -4 5 -1
1 6 -6 10 -11 10 -22 1 -10 -8 -14 -8 -14 0 0 6 3 11 8 12 4 0 19 2 35 4 20 3
27 -1 28 -13 0 -14 2 -13 9 3 5 11 9 14 9 6 1 -10 4 -11 15 -2 10 8 16 9 21 1
3 -6 12 -7 18 -3 16 10 38 13 33 4 -3 -4 12 -7 33 -7 30 0 38 3 34 16 -3 10
-1 9 7 -3 9 -14 15 -16 26 -6z m795 -9 c0 -14 2 -13 9 3 5 11 9 14 9 6 1 -11
4 -11 17 0 13 10 17 10 24 0 5 -10 9 -10 15 -2 5 9 11 9 23 -1 12 -10 14 -10
8 0 -4 6 -2 12 3 12 6 0 11 -8 12 -17 0 -15 2 -15 9 2 5 12 9 15 9 5 1 -10 4
-11 12 -3 8 8 20 8 36 2 16 -6 22 -5 18 1 -3 6 -2 10 4 10 5 0 11 -6 14 -12 3
-10 7 -10 20 1 11 9 17 10 17 2 0 -6 5 -11 11 -11 5 0 8 4 4 9 -3 5 -1 13 5
16 6 4 9 1 8 -6 -2 -7 6 -14 17 -16 14 -3 16 -1 7 5 -9 6 -3 9 18 9 21 0 30
-5 30 -16 0 -14 2 -14 10 -1 10 16 70 21 70 5 0 -5 5 -3 10 5 8 13 10 12 10
-4 0 -20 0 -20 15 0 8 10 15 15 15 10 0 -5 8 -2 17 5 11 10 14 10 9 2 -4 -8
-1 -13 8 -13 9 0 16 -5 16 -12 0 -6 7 -3 15 8 8 10 15 14 15 8 0 -7 11 -9 25
-6 16 3 25 0 25 -9 0 -8 6 -5 15 7 8 11 14 14 15 6 0 -10 5 -10 20 -2 13 7 20
7 20 1 0 -6 7 -8 17 -4 13 5 15 2 11 -15 -4 -12 -3 -20 1 -17 4 2 8 -2 8 -9 0
-8 -5 -12 -12 -10 -6 3 -11 -4 -11 -15 0 -15 3 -17 13 -9 8 6 16 8 20 4 3 -3
1 -6 -6 -6 -8 0 -11 -8 -8 -20 4 -14 0 -20 -11 -21 -14 0 -13 -2 3 -9 11 -5
14 -9 7 -9 -7 -1 -10 -5 -7 -11 3 -5 1 -10 -6 -10 -7 0 -9 -3 -6 -6 4 -4 14
-1 24 7 9 8 14 9 10 3 -15 -26 -22 -78 -14 -116 4 -18 2 -25 -7 -22 -7 3 -12
-4 -12 -15 0 -15 3 -17 13 -9 8 6 16 8 20 4 3 -3 1 -6 -6 -6 -9 0 -11 -8 -7
-24 3 -14 1 -28 -4 -31 -6 -4 -8 -11 -4 -16 3 -5 9 -7 14 -4 4 3 6 -4 3 -15
-3 -11 -10 -23 -16 -27 -6 -4 -7 -1 -2 7 5 9 4 11 -4 6 -7 -5 -9 -12 -3 -19 5
-7 9 -27 11 -46 1 -19 6 -40 12 -47 7 -8 6 -14 -1 -19 -7 -4 -10 -16 -7 -26 4
-13 0 -19 -11 -20 -14 0 -13 -2 3 -9 14 -6 15 -9 5 -10 -10 -1 -9 -4 5 -10 18
-8 18 -9 -5 -10 -18 -2 -20 -4 -7 -7 20 -5 22 -19 5 -29 -7 -5 -8 -3 -3 6 5 9
4 11 -4 6 -8 -5 -9 -12 -2 -20 11 -13 10 -34 -2 -53 -4 -6 -3 -15 3 -18 6 -4
9 -1 8 6 -2 6 4 14 12 16 10 3 11 2 4 -4 -6 -4 -10 -16 -8 -26 1 -9 -1 -15 -6
-12 -4 3 -10 -4 -13 -16 -5 -17 -3 -18 9 -8 8 6 17 9 21 5 3 -3 2 -6 -4 -6
-11 0 -24 -46 -15 -55 7 -7 7 -68 -1 -88 -4 -10 1 -20 11 -26 9 -6 12 -11 5
-11 -6 0 -10 -9 -8 -20 2 -11 0 -18 -6 -15 -5 4 -9 2 -9 -4 0 -5 8 -12 18 -14
12 -3 11 -5 -6 -6 -21 -1 -22 -2 -8 -17 19 -18 21 -38 4 -28 -10 6 -10 4 -2
-7 6 -8 10 -32 8 -54 -6 -64 -4 -98 7 -111 7 -8 6 -14 -1 -19 -7 -4 -9 -18 -6
-30 3 -13 1 -27 -4 -30 -6 -4 -8 -11 -4 -16 3 -5 10 -6 16 -3 7 5 8 2 3 -6
-18 -30 -21 -116 -4 -136 7 -8 6 -14 -1 -19 -7 -4 -10 -16 -7 -26 4 -13 0 -19
-11 -20 -14 0 -13 -2 3 -9 11 -5 14 -9 7 -9 -7 -1 -10 -5 -7 -11 3 -5 1 -10
-6 -10 -7 0 -9 -3 -6 -6 4 -4 14 -1 24 7 9 8 14 9 10 3 -13 -23 -16 -68 -4
-83 9 -12 9 -13 0 -7 -9 5 -13 0 -13 -18 0 -14 5 -28 10 -31 8 -5 7 -11 0 -20
-7 -8 -9 -23 -5 -34 3 -10 1 -22 -5 -26 -6 -3 -8 -11 -4 -16 3 -5 10 -6 16 -3
7 5 8 2 3 -6 -13 -22 -14 -64 -2 -79 9 -12 9 -13 0 -7 -9 5 -13 0 -13 -18 0
-14 5 -28 10 -31 7 -4 8 -11 1 -18 -9 -12 -16 -47 -11 -57 1 -3 3 -26 4 -53 1
-37 -1 -46 -13 -42 -10 4 -11 2 -4 -7 14 -18 22 -78 10 -78 -5 0 -4 -7 3 -15
10 -12 9 -15 -6 -15 -16 0 -16 -2 -4 -9 8 -6 19 -8 25 -5 5 3 0 -3 -13 -12
-21 -16 -22 -18 -6 -35 16 -18 16 -19 -2 -19 -16 -1 -15 -3 6 -15 22 -13 23
-14 5 -15 -17 0 -17 -2 -5 -10 12 -8 12 -10 1 -10 -11 0 -11 -3 -1 -15 10 -12
9 -15 -6 -15 -16 0 -16 -2 -4 -9 8 -6 19 -7 25 -5 5 3 2 -1 -8 -9 -14 -11 -15
-16 -5 -20 8 -3 5 -6 -6 -6 -20 -1 -20 -1 0 -16 19 -14 19 -14 -1 -15 -18 -1
-17 -2 5 -15 22 -13 23 -14 5 -15 -17 0 -17 -2 -5 -10 13 -8 12 -10 -4 -10
-20 0 -20 0 0 -15 19 -14 19 -14 -1 -15 -18 -1 -17 -2 5 -15 22 -13 23 -14 5
-15 -17 0 -17 -2 -5 -10 12 -8 12 -10 1 -10 -11 0 -11 -3 -1 -15 10 -12 9 -15
-6 -15 -16 -1 -15 -3 6 -15 22 -13 23 -14 5 -15 -17 0 -17 -2 -5 -10 12 -8 12
-10 1 -10 -11 0 -11 -3 -1 -15 10 -12 9 -15 -6 -15 -16 0 -16 -2 -4 -9 8 -6
19 -7 25 -5 5 3 1 -2 -9 -10 -15 -12 -16 -16 -5 -17 10 0 11 -2 1 -6 -10 -4
-10 -8 -1 -19 9 -11 8 -14 -7 -14 -16 0 -16 -2 -4 -9 8 -6 19 -7 25 -5 5 3 1
-2 -9 -10 -15 -12 -16 -16 -5 -17 10 0 11 -2 1 -6 -10 -4 -10 -8 -1 -19 9 -11
8 -14 -7 -14 -16 0 -16 -2 -4 -9 8 -6 19 -8 25 -5 5 3 0 -3 -13 -12 -21 -16
-22 -18 -6 -35 11 -12 13 -19 5 -19 -7 0 -9 -5 -6 -10 4 -6 12 -7 18 -4 7 4 2
-3 -10 -15 -25 -24 -32 -41 -9 -22 11 9 13 6 10 -18 -2 -17 1 -33 7 -36 6 -4
6 -11 1 -18 -12 -16 -12 -49 0 -64 7 -9 5 -15 -6 -19 -13 -5 -14 -9 -5 -20 9
-11 8 -14 -7 -14 -16 0 -16 -2 -4 -9 8 -6 19 -7 25 -5 5 3 1 -2 -9 -10 -15
-12 -16 -16 -5 -17 10 0 11 -2 1 -6 -10 -4 -10 -8 -1 -19 9 -11 8 -14 -7 -14
-16 -1 -15 -3 5 -14 l23 -13 -23 -6 c-22 -6 -22 -7 -4 -27 18 -19 18 -20 -1
-20 -15 0 -16 -2 -4 -9 8 -6 19 -7 25 -5 5 3 1 -2 -9 -10 -15 -12 -16 -16 -5
-17 10 0 11 -2 1 -6 -10 -4 -10 -8 -1 -19 9 -11 8 -14 -7 -14 -16 -1 -15 -3 6
-15 20 -11 21 -14 7 -15 -15 0 -16 -3 -7 -20 8 -15 8 -20 -2 -21 -7 0 -4 -4 7
-9 19 -8 19 -9 -4 -9 -16 -1 -21 -5 -18 -15 4 -10 1 -13 -9 -9 -9 3 -13 13 -9
27 2 11 2 15 -1 9 -8 -18 -24 -16 -24 3 0 10 -5 14 -16 10 -8 -3 -12 -2 -9 4
3 6 1 10 -5 10 -7 0 -10 7 -7 15 4 8 1 17 -5 21 -7 4 -8 3 -4 -4 4 -7 2 -12
-3 -12 -6 0 -11 7 -11 16 0 8 -4 12 -10 9 -5 -3 -10 -1 -10 5 0 6 -5 8 -12 4
-9 -5 -9 -2 1 9 12 15 11 17 -8 17 -12 0 -21 6 -21 15 0 8 5 15 12 15 6 0 8 3
5 6 -4 4 -13 1 -22 -6 -11 -9 -15 -9 -15 -1 0 7 -5 9 -12 5 -8 -5 -8 -2 1 10
8 9 10 16 5 15 -26 -5 -36 1 -25 15 10 12 8 13 -8 9 -13 -3 -21 -1 -21 6 0 7
-5 9 -12 5 -9 -5 -9 -2 1 9 12 15 11 17 -8 17 -11 0 -21 5 -21 11 0 5 -6 7
-12 3 -9 -5 -9 -2 1 9 12 15 11 17 -8 17 -12 0 -21 6 -21 15 0 8 5 15 12 15 6
0 8 3 5 6 -4 4 -13 1 -22 -6 -11 -9 -15 -9 -15 -1 0 7 -5 9 -12 5 -8 -5 -8 -2
1 10 8 9 10 16 5 15 -26 -5 -36 1 -25 15 10 12 8 13 -8 9 -13 -3 -21 -1 -21 6
0 7 -5 9 -12 5 -9 -5 -9 -2 1 9 12 15 11 17 -8 17 -15 0 -21 6 -21 21 0 19 -2
20 -17 8 -11 -10 -14 -10 -9 -1 4 6 2 12 -3 12 -6 0 -11 10 -11 21 0 19 -2 20
-17 8 -9 -8 -14 -9 -10 -2 4 6 1 13 -5 16 -10 3 -10 7 -1 19 10 12 10 15 -2
15 -8 0 -12 -4 -9 -9 3 -4 1 -8 -4 -8 -6 0 -13 7 -16 16 -3 9 -11 12 -18 8
-10 -6 -10 -4 0 8 10 13 10 18 1 24 -8 4 -9 3 -5 -4 4 -7 3 -12 -2 -12 -5 0
-12 9 -15 20 -3 11 -12 20 -21 20 -9 0 -16 8 -16 20 0 11 -4 20 -10 20 -5 0
-7 -8 -4 -18 3 -9 -3 -4 -13 11 -12 19 -24 26 -36 23 -11 -2 -16 -2 -13 1 3 4
-4 18 -16 32 l-23 26 28 -25 c18 -15 26 -19 22 -9 -3 9 -17 22 -30 29 -13 7
-21 18 -18 24 4 6 -1 5 -10 -3 -15 -12 -17 -12 -12 2 4 8 1 18 -6 23 -8 5 -10
3 -4 -7 6 -10 5 -11 -4 -3 -7 6 -13 20 -14 32 0 11 -4 20 -7 20 -23 -2 -40 4
-35 12 3 6 0 10 -8 10 -21 0 -50 37 -41 52 5 9 2 8 -11 -2 -11 -9 -16 -10 -11
-2 4 7 1 15 -8 18 -9 3 -16 10 -16 16 0 5 5 6 12 2 7 -4 8 -3 4 5 -6 9 -11 9
-24 -1 -9 -7 -13 -8 -9 -2 4 6 -2 21 -12 33 -14 16 -21 18 -24 9 -3 -7 -6 -1
-6 14 -1 20 -8 29 -31 37 -16 5 -30 17 -30 25 0 15 -12 21 -34 17 -5 -1 -3 6
5 15 9 12 9 15 2 10 -7 -4 -13 -3 -13 2 0 5 -9 12 -20 15 -12 3 -20 14 -20 25
0 11 -8 23 -17 27 -15 5 -16 4 -5 -6 6 -7 12 -18 12 -23 0 -6 -7 0 -16 12 -8
12 -12 28 -8 35 5 7 0 6 -11 -3 -10 -8 -16 -10 -12 -3 4 7 -3 22 -17 36 -14
14 -22 28 -18 31 3 4 -1 4 -10 1 -9 -4 -19 -1 -24 6 -4 8 -3 10 4 5 7 -4 12
-5 12 -1 0 3 -11 10 -25 15 -15 6 -25 17 -25 29 0 10 -7 22 -16 25 -14 5 -15
4 -4 -9 7 -9 11 -18 8 -20 -3 -3 -11 7 -19 23 -8 15 -26 39 -41 53 -15 15 -24
30 -20 35 4 5 -2 2 -13 -6 -11 -8 -17 -10 -13 -6 4 5 1 14 -8 20 -8 6 -16 21
-17 33 0 12 -4 21 -7 21 -23 -2 -40 4 -35 12 3 6 -1 10 -9 10 -8 0 -18 9 -21
20 -4 11 -11 17 -17 14 -8 -5 -9 -1 -4 11 6 16 4 16 -11 4 -11 -9 -14 -10 -9
-1 4 7 1 15 -9 18 -14 6 -14 9 -3 16 9 7 7 8 -9 5 -14 -3 -21 0 -20 7 1 6 -5
10 -13 8 -12 -3 -13 -1 -2 9 6 7 12 18 12 23 0 6 -5 4 -10 -4 -6 -10 -10 -11
-10 -2 0 6 -5 12 -11 12 -5 0 -7 -5 -3 -12 4 -6 3 -8 -4 -5 -5 4 -8 15 -5 26
3 14 -3 21 -26 29 -17 6 -31 16 -31 22 0 17 -26 40 -36 32 -4 -4 3 9 16 28
l24 35 -24 -20 -23 -20 16 26 c10 14 14 30 10 35 -5 5 3 0 17 -11 23 -19 24
-19 10 -1 -12 16 -13 20 -1 24 11 4 11 6 0 13 -11 7 -10 9 5 9 14 0 17 6 14
25 -4 20 -1 25 15 25 15 0 17 3 8 13 -6 8 -7 17 -3 21 4 4 7 13 7 19 0 5 7 12
15 14 13 4 13 3 0 -6 -9 -7 -10 -11 -3 -11 17 0 25 17 13 25 -8 5 -7 11 1 21
6 7 15 12 19 9 5 -3 12 -1 15 5 4 6 3 9 -2 8 -4 -2 -8 2 -8 7 0 6 4 9 8 7 5
-1 6 2 2 8 -3 5 -1 10 5 10 6 0 9 4 6 9 -10 15 5 41 23 41 9 0 12 3 6 8 -5 4
-11 14 -13 22 -3 12 -1 13 9 3 7 -7 18 -13 23 -13 6 0 4 5 -4 11 -12 9 -13 12
-1 16 11 5 11 7 0 14 -11 7 -11 9 2 9 9 0 20 7 23 16 6 15 4 15 -11 3 -17 -13
-17 -13 0 7 9 11 14 23 11 26 -3 3 0 9 7 14 8 4 10 3 5 -4 -4 -7 -2 -12 3 -12
10 0 16 29 12 53 -1 5 4 5 10 1 8 -5 10 -1 7 14 -4 15 -2 19 8 15 10 -4 12 0
7 13 -4 11 -3 15 4 11 6 -4 14 0 17 9 3 8 2 12 -4 9 -6 -3 -10 -1 -10 4 0 6 7
11 16 11 8 0 12 5 8 11 -3 6 -3 14 2 18 14 9 37 54 25 47 -7 -5 -8 -1 -5 9 5
13 9 13 22 3 11 -9 13 -9 9 -1 -4 6 -3 14 2 18 6 3 8 12 5 19 -3 8 5 21 18 30
12 9 18 16 12 16 -5 0 -15 -5 -22 -12 -7 -7 -12 -9 -12 -5 0 3 10 16 22 27 20
18 21 22 8 31 -12 9 -12 10 4 5 13 -5 17 -2 12 9 -3 9 0 15 9 15 7 0 17 5 21
12 4 7 3 8 -4 4 -23 -14 -12 22 16 49 15 16 21 25 15 21 -7 -4 -13 -3 -13 2 0
6 7 12 15 16 8 3 15 12 15 20 0 8 10 22 22 30 12 9 18 16 12 16 -5 0 -16 -6
-23 -12 -10 -11 -11 -10 -6 4 4 9 16 18 27 21 13 4 17 10 12 18 -4 8 3 21 20
34 18 15 22 22 12 22 -9 0 -16 -4 -16 -9 0 -4 -6 -8 -12 -8 -7 1 -3 9 10 20
13 10 24 23 25 27 1 4 6 7 11 5 5 -2 4 4 -3 12 -10 12 -9 18 8 33 12 9 21 23
21 30 0 6 10 19 22 27 12 9 18 16 12 16 -5 0 -15 -5 -22 -12 -7 -7 -12 -9 -12
-5 0 3 10 16 22 27 20 18 21 22 8 31 -12 9 -12 10 4 5 13 -5 17 -2 12 9 -3 9
0 15 8 15 8 0 12 7 10 18 -4 19 12 43 40 59 12 7 15 13 7 17 -6 4 -11 2 -11
-3 0 -6 -5 -11 -11 -11 -8 0 -7 5 1 15 7 9 20 13 28 10 12 -4 13 -3 2 10 -10
12 -9 15 6 15 14 0 15 3 6 8 -7 5 -10 16 -6 26 5 14 9 14 22 4 11 -9 13 -9 9
-1 -4 6 -3 14 2 18 6 3 8 12 5 19 -3 8 7 23 22 35 19 15 22 21 10 21 -9 0 -16
-4 -16 -10 0 -5 -6 -10 -12 -10 -7 1 -4 8 8 18 11 10 20 25 18 35 -1 9 3 15 9
14 7 -1 12 7 12 17 0 11 6 21 13 24 9 3 10 8 3 16 -8 9 -6 13 4 13 8 0 15 -5
15 -10 0 -6 3 -7 6 -4 4 4 1 13 -6 22 -10 12 -10 15 3 15 9 0 19 5 23 12 5 7
3 8 -6 3 -8 -5 -11 -3 -8 6 3 8 11 13 17 11 9 -2 9 3 0 20 -11 21 -11 22 5 9
14 -12 16 -12 10 3 -4 10 -1 16 8 16 17 0 20 30 4 30 -6 1 3 7 19 14 17 7 39
10 49 8 14 -4 17 -2 11 8 -5 9 -4 11 3 6 7 -4 12 -15 13 -24z m3004 19 c-9 -8
-36 -10 -30 -2 2 4 11 8 20 8 8 0 13 -3 10 -6z m-5681 -637 c5 -14 4 -15 -9
-4 -17 14 -19 20 -6 20 5 0 12 -7 15 -16z m3721 -354 c3 -5 1 -10 -4 -10 -6 0
-11 5 -11 10 0 6 2 10 4 10 3 0 8 -4 11 -10z m-1161 -2206 c5 -14 4 -15 -9 -4
-17 14 -19 20 -6 20 5 0 12 -7 15 -16z"/>
<path d="M5336 10272 c-3 -5 1 -9 9 -9 8 0 12 4 9 9 -3 4 -7 8 -9 8 -2 0 -6
-4 -9 -8z"/>
<path d="M5470 10190 c0 -5 5 -10 11 -10 5 0 7 5 4 10 -3 6 -8 10 -11 10 -2 0
-4 -4 -4 -10z"/>
<path d="M3197 10112 c-14 -15 -15 -19 -2 -19 8 0 12 4 9 8 -2 4 4 12 13 18
10 6 13 11 7 11 -6 0 -18 -8 -27 -18z"/>
<path d="M3149 10073 c-13 -16 -12 -17 4 -4 9 7 17 15 17 17 0 8 -8 3 -21 -13z"/>
<path d="M4255 8031 c-3 -5 -2 -12 3 -15 5 -3 9 1 9 9 0 17 -3 19 -12 6z"/>
<path d="M4255 7391 c-3 -5 -2 -12 3 -15 5 -3 9 1 9 9 0 17 -3 19 -12 6z"/>
<path d="M6000 7230 c-9 -6 -10 -10 -3 -10 6 0 15 5 18 10 8 12 4 12 -15 0z"/>
<path d="M2930 7041 c0 -6 4 -13 10 -16 6 -3 7 1 4 9 -7 18 -14 21 -14 7z"/>
<path d="M4255 6911 c-3 -5 -2 -12 3 -15 5 -3 9 1 9 9 0 17 -3 19 -12 6z"/>
<path d="M3320 6706 c0 -2 8 -10 18 -17 15 -13 16 -12 3 4 -13 16 -21 21 -21
13z"/>
<path d="M4255 6591 c-3 -5 -2 -12 3 -15 5 -3 9 1 9 9 0 17 -3 19 -12 6z"/>
<path d="M3580 6566 c0 -2 8 -10 18 -17 15 -13 16 -12 3 4 -13 16 -21 21 -21
13z"/>
<path d="M3770 6489 c0 -5 5 -7 10 -4 6 3 10 8 10 11 0 2 -4 4 -10 4 -5 0 -10
-5 -10 -11z"/>
<path d="M4810 6440 c0 -5 5 -10 11 -10 5 0 7 5 4 10 -3 6 -8 10 -11 10 -2 0
-4 -4 -4 -10z"/>
<path d="M6358 5298 c9 -9 9 -15 -1 -27 -11 -14 -10 -14 6 -2 13 10 15 17 6
27 -6 8 -14 14 -17 14 -3 0 -1 -5 6 -12z"/>
<path d="M6355 5121 c-3 -5 -2 -12 3 -15 5 -3 9 1 9 9 0 17 -3 19 -12 6z"/>
<path d="M5945 4810 c-3 -5 -1 -10 4 -10 6 0 11 5 11 10 0 6 -2 10 -4 10 -3 0
-8 -4 -11 -10z"/>
<path d="M5926 4772 c-3 -5 1 -9 9 -9 8 0 12 4 9 9 -3 4 -7 8 -9 8 -2 0 -6 -4
-9 -8z"/>
<path d="M6355 4641 c-3 -5 -2 -12 3 -15 5 -3 9 1 9 9 0 17 -3 19 -12 6z"/>
<path d="M3266 4052 c-3 -5 1 -9 9 -9 8 0 12 4 9 9 -3 4 -7 8 -9 8 -2 0 -6 -4
-9 -8z"/>
<path d="M3426 4052 c-3 -5 1 -9 9 -9 8 0 12 4 9 9 -3 4 -7 8 -9 8 -2 0 -6 -4
-9 -8z"/>
<path d="M2810 4026 c0 -2 8 -10 18 -17 15 -13 16 -12 3 4 -13 16 -21 21 -21
13z"/>
<path d="M4255 3760 c3 -5 8 -10 11 -10 2 0 4 5 4 10 0 6 -5 10 -11 10 -5 0
-7 -4 -4 -10z"/>
<path d="M4255 3071 c-3 -5 -2 -12 3 -15 5 -3 9 1 9 9 0 17 -3 19 -12 6z"/>
<path d="M4255 2751 c-3 -5 -2 -12 3 -15 5 -3 9 1 9 9 0 17 -3 19 -12 6z"/>
<path d="M6146 4052 c-3 -5 1 -9 9 -9 8 0 12 4 9 9 -3 4 -7 8 -9 8 -2 0 -6 -4
-9 -8z"/>
<path d="M6355 3871 c-3 -5 -2 -12 3 -15 5 -3 9 1 9 9 0 17 -3 19 -12 6z"/>
<path d="M5330 3575 c-11 -13 -10 -14 4 -9 9 3 16 10 16 15 0 13 -6 11 -20 -6z"/>
<path d="M6355 3516 c0 -18 3 -22 13 -14 9 8 9 14 1 24 -15 18 -14 18 -14 -10z"/>
<path d="M5225 3370 c-3 -6 1 -7 9 -4 18 7 21 14 7 14 -6 0 -13 -4 -16 -10z"/>
<path d="M5090 3095 c-11 -13 -10 -14 4 -9 9 3 16 10 16 15 0 13 -6 11 -20 -6z"/>
<path d="M6355 3081 c-3 -5 -2 -12 3 -15 5 -3 9 1 9 9 0 17 -3 19 -12 6z"/>
<path d="M6355 2911 c-3 -5 -2 -12 3 -15 5 -3 9 1 9 9 0 17 -3 19 -12 6z"/>
<path d="M6354 2791 c0 -15 3 -17 13 -9 7 6 10 14 7 19 -9 15 -20 10 -20 -10z"/>
<path d="M6354 2551 c0 -15 3 -17 13 -9 7 6 10 14 7 19 -9 15 -20 10 -20 -10z"/>
<path d="M6355 2431 c-3 -5 -2 -12 3 -15 5 -3 9 1 9 9 0 17 -3 19 -12 6z"/>
<path d="M4725 2380 c-3 -6 1 -7 9 -4 18 7 21 14 7 14 -6 0 -13 -4 -16 -10z"/>
<path d="M6355 2316 c0 -18 3 -22 13 -14 9 8 9 14 1 24 -15 18 -14 18 -14 -10z"/>
<path d="M6355 2076 c0 -18 3 -22 13 -14 9 8 9 14 1 24 -15 18 -14 18 -14 -10z"/>
<path d="M5480 1346 c0 -2 7 -9 15 -16 9 -7 15 -8 15 -2 0 5 -7 12 -15 16 -8
3 -15 4 -15 2z"/>
<path d="M6358 978 c9 -9 9 -15 -1 -27 -11 -14 -10 -14 6 -2 13 10 15 17 6 27
-6 8 -14 14 -17 14 -3 0 -1 -5 6 -12z"/>
<path d="M6350 906 c0 -2 8 -10 18 -17 15 -13 16 -12 3 4 -13 16 -21 21 -21
13z"/>
<path d="M4850 10762 c0 -15 28 -23 36 -9 4 7 4 9 -1 5 -4 -4 -14 -3 -22 3 -8
7 -13 8 -13 1z"/>
<path d="M3675 10700 c-3 -5 -1 -10 4 -10 6 0 11 5 11 10 0 6 -2 10 -4 10 -3
0 -8 -4 -11 -10z"/>
<path d="M2683 10063 c4 -3 1 -13 -6 -22 -11 -14 -10 -14 5 -2 16 12 16 31 1
31 -4 0 -3 -3 0 -7z"/>
<path d="M6427 9549 c7 -7 15 -10 18 -7 3 3 -2 9 -12 12 -14 6 -15 5 -6 -5z"/>
<path d="M2240 9280 c-9 -6 -10 -10 -3 -10 6 0 15 5 18 10 8 12 4 12 -15 0z"/>
<path d="M6673 8463 c4 -3 1 -13 -6 -22 -11 -14 -10 -14 5 -2 16 12 16 31 1
31 -4 0 -3 -3 0 -7z"/>
<path d="M6676 8362 c-3 -5 1 -9 9 -9 8 0 12 4 9 9 -3 4 -7 8 -9 8 -2 0 -6 -4
-9 -8z"/>
<path d="M6663 8235 c0 -8 4 -12 9 -9 5 3 6 10 3 15 -9 13 -12 11 -12 -6z"/>
<path d="M6505 7530 c-3 -6 1 -7 9 -4 18 7 21 14 7 14 -6 0 -13 -4 -16 -10z"/>
<path d="M2270 7520 c0 -5 5 -10 11 -10 5 0 7 5 4 10 -3 6 -8 10 -11 10 -2 0
-4 -4 -4 -10z"/>
<path d="M2896 6622 c-3 -5 1 -9 9 -9 8 0 12 4 9 9 -3 4 -7 8 -9 8 -2 0 -6 -4
-9 -8z"/>
<path d="M6446 6337 c3 -10 9 -15 12 -12 3 3 0 11 -7 18 -10 9 -11 8 -5 -6z"/>
<path d="M3390 6316 c0 -2 8 -10 18 -17 15 -13 16 -12 3 4 -13 16 -21 21 -21
13z"/>
<path d="M4015 6129 c-4 -6 -5 -12 -2 -15 2 -3 7 2 10 11 7 17 1 20 -8 4z"/>
<path d="M6215 6080 c-3 -5 -1 -10 4 -10 6 0 11 5 11 10 0 6 -2 10 -4 10 -3 0
-8 -4 -11 -10z"/>
<path d="M6010 5658 c0 -4 4 -8 9 -8 6 0 12 4 15 8 3 5 -1 9 -9 9 -8 0 -15 -4
-15 -9z"/>
<path d="M5794 5212 c3 -6 -2 -15 -11 -21 -10 -5 -15 -12 -12 -15 3 -4 14 2
23 13 13 14 14 21 5 27 -7 4 -10 3 -5 -4z"/>
<path d="M5735 5089 c-4 -6 -5 -12 -2 -15 2 -3 7 2 10 11 7 17 1 20 -8 4z"/>
<path d="M5695 5020 c-3 -5 -2 -10 4 -10 5 0 13 5 16 10 3 6 2 10 -4 10 -5 0
-13 -4 -16 -10z"/>
<path d="M5550 4720 c-9 -6 -10 -10 -3 -10 6 0 15 5 18 10 8 12 4 12 -15 0z"/>
<path d="M5524 4682 c3 -5 0 -13 -6 -15 -9 -4 -10 -6 -1 -6 17 -1 25 16 12 25
-7 4 -9 3 -5 -4z"/>
<path d="M6695 4380 c3 -5 8 -10 11 -10 2 0 4 5 4 10 0 6 -5 10 -11 10 -5 0
-7 -4 -4 -10z"/>
<path d="M7846 4372 c-3 -5 1 -9 9 -9 8 0 12 4 9 9 -3 4 -7 8 -9 8 -2 0 -6 -4
-9 -8z"/>
<path d="M8166 4372 c-3 -5 1 -9 9 -9 8 0 12 4 9 9 -3 4 -7 8 -9 8 -2 0 -6 -4
-9 -8z"/>
<path d="M8326 4372 c-3 -5 1 -9 9 -9 8 0 12 4 9 9 -3 4 -7 8 -9 8 -2 0 -6 -4
-9 -8z"/>
<path d="M2316 4362 c-3 -5 1 -9 9 -9 8 0 12 4 9 9 -3 4 -7 8 -9 8 -2 0 -6 -4
-9 -8z"/>
<path d="M7426 4052 c-3 -5 1 -9 9 -9 8 0 12 4 9 9 -3 4 -7 8 -9 8 -2 0 -6 -4
-9 -8z"/>
<path d="M7586 4052 c-3 -5 1 -9 9 -9 8 0 12 4 9 9 -3 4 -7 8 -9 8 -2 0 -6 -4
-9 -8z"/>
<path d="M2379 4017 c6 -8 7 -18 3 -22 -4 -5 -1 -5 6 -1 10 6 10 11 1 22 -6 8
-14 14 -16 14 -3 0 0 -6 6 -13z"/>
<path d="M6693 2395 c0 -8 4 -12 9 -9 5 3 6 10 3 15 -9 13 -12 11 -12 -6z"/>
<path d="M6690 721 c0 -6 4 -13 10 -16 6 -3 7 1 4 9 -7 18 -14 21 -14 7z"/>
<path d="M6556 8 c3 -5 10 -6 15 -3 13 9 11 12 -6 12 -8 0 -12 -4 -9 -9z"/>
</g>
</svg>
